<svg class="animated" id="freepik_stories-file-bundle" xmlns="http://www.w3.org/2000/svg" viewBox="0 0 500 500" version="1.1" xmlns:xlink="http://www.w3.org/1999/xlink" xmlns:svgjs="http://svgjs.com/svgjs"><style>svg#freepik_stories-file-bundle:not(.animated) .animable {opacity: 0;}svg#freepik_stories-file-bundle.animated #freepik--Character--inject-2 {animation: 1.6s 1 forwards ease-in slideDown;animation-delay: 0s;}svg#freepik_stories-file-bundle.animated #freepik--Box--inject-2 {animation: 1.7s 1 forwards ease-in slideLeft;animation-delay: 0s;}            @keyframes slideDown {                0% {                    opacity: 0;                    transform: translateY(-30px);                }                100% {                    opacity: 1;                    transform: translateY(0);                }            }                    @keyframes slideLeft {                0% {                    opacity: 0;                    transform: translateX(-30px);                }                100% {                    opacity: 1;                    transform: translateX(0);                }            }        .animator-hidden { display: none; }</style><g id="freepik--background-complete--inject-2" class="animable animator-hidden" style="transform-origin: 251.25px 250.274px;"><path d="M213.33,329.18,192.61,342.8a3.1,3.1,0,0,1-4.3-.88l-18.86-28.69a3.1,3.1,0,0,1,.89-4.29l13.14-8.64,17.07,3.79,13.67,20.79A3.11,3.11,0,0,1,213.33,329.18Z" style="fill: rgb(235, 235, 235); transform-origin: 191.835px 321.807px;" id="elylingtlh1qg" class="animable"></path><path d="M183.48,300.3l5.31,8.07a2.89,2.89,0,0,0,4,.82l7.76-5.1Z" style="fill: rgb(245, 245, 245); transform-origin: 192.015px 304.983px;" id="elkv98yhunyc" class="animable"></path><path d="M189.36,309a3.22,3.22,0,0,0,3.84,1.2l.29-.11c1.13-.49,8.59-3.68,8.49-3.84l-1.43-2.17-7.76,5.11S190.81,310.4,189.36,309Z" style="fill: rgb(224, 224, 224); transform-origin: 195.67px 307.25px;" id="el06a3uwh8t0og" class="animable"></path><path d="M186.84,309.18a38.62,38.62,0,0,1-4.67,3.34,35.77,35.77,0,0,1-4.92,3,38,38,0,0,1,4.67-3.34A37,37,0,0,1,186.84,309.18Z" style="fill: rgb(250, 250, 250); transform-origin: 182.045px 312.35px;" id="elukody8h3qb" class="animable"></path><path d="M196,309.67c.07.11-3.41,2.51-7.77,5.38s-7.94,5.1-8,5,3.41-2.51,7.77-5.38S196,309.57,196,309.67Z" style="fill: rgb(250, 250, 250); transform-origin: 188.115px 314.86px;" id="eleyh28pbk43" class="animable"></path><path d="M200,312.55c.06.11-3.73,2.72-8.48,5.84s-8.66,5.57-8.72,5.47,3.72-2.72,8.47-5.84S199.89,312.45,200,312.55Z" style="fill: rgb(250, 250, 250); transform-origin: 191.4px 318.205px;" id="el6mvqwhgho9x" class="animable"></path><path d="M202.32,316.15c.07.1-3.73,2.72-8.48,5.84s-8.65,5.57-8.72,5.47,3.73-2.72,8.48-5.85S202.25,316,202.32,316.15Z" style="fill: rgb(250, 250, 250); transform-origin: 193.72px 321.803px;" id="elrneib689bnl" class="animable"></path><path d="M204.68,319.74c.07.11-3.72,2.72-8.47,5.84s-8.66,5.58-8.73,5.47,3.73-2.72,8.48-5.84S204.62,319.64,204.68,319.74Z" style="fill: rgb(250, 250, 250); transform-origin: 196.08px 325.395px;" id="el2ouj5r5da36" class="animable"></path><path d="M207.05,323.34c.07.1-3.73,2.72-8.48,5.84s-8.65,5.57-8.72,5.47,3.72-2.72,8.47-5.84S207,323.24,207.05,323.34Z" style="fill: rgb(250, 250, 250); transform-origin: 198.45px 328.995px;" id="elz8ojpbuco3d" class="animable"></path><path d="M234.25,138.11l-29.76-16.35a4.25,4.25,0,0,1-1.68-5.77l22.63-41.2a4.25,4.25,0,0,1,5.77-1.67l18.88,10.37,6.34,23.08L240,136.44A4.25,4.25,0,0,1,234.25,138.11Z" style="fill: rgb(245, 245, 245); transform-origin: 229.358px 105.611px;" id="elmpw36w30rsl" class="animable"></path><path d="M250.09,83.49l-6.37,11.59a4,4,0,0,0,1.56,5.37l11.15,6.12Z" style="fill: rgb(250, 250, 250); transform-origin: 249.838px 95.03px;" id="eldmxe1s55ich" class="animable"></path><path d="M243.31,96.18a4.4,4.4,0,0,0,1,5.42c.1.1.21.19.32.28,1.31,1.06,10,8,10.08,7.81l1.71-3.12-11.15-6.12S242.55,98.82,243.31,96.18Z" style="fill: rgb(224, 224, 224); transform-origin: 249.602px 102.937px;" id="eltj92007dcsa" class="animable"></path><path d="M241.49,93.24a51.25,51.25,0,0,1-7-3.52c-3.8-2.09-6.82-3.9-6.74-4s3.23,1.42,7,3.51S241.57,93.09,241.49,93.24Z" style="fill: rgb(250, 250, 250); transform-origin: 234.62px 89.4777px;" id="eln80mnd9mejr" class="animable"></path><path d="M246.78,104.68c-.08.15-5.22-2.52-11.48-6S224,92.38,224.11,92.23s5.22,2.51,11.48,6S246.86,104.53,246.78,104.68Z" style="fill: rgb(250, 250, 250); transform-origin: 235.445px 98.455px;" id="el89m339wjqdv" class="animable"></path><path d="M245.81,111.27c-.08.15-5.68-2.77-12.5-6.51S221,97.85,221.11,97.7s5.67,2.77,12.5,6.52S245.89,111.12,245.81,111.27Z" style="fill: rgb(250, 250, 250); transform-origin: 233.46px 104.485px;" id="elr0bxk52t19" class="animable"></path><path d="M243,116.44c-.08.15-5.68-2.77-12.5-6.52s-12.28-6.9-12.2-7,5.68,2.76,12.5,6.51S243.06,116.29,243,116.44Z" style="fill: rgb(250, 250, 250); transform-origin: 230.65px 109.681px;" id="el2u41g3c6ouw" class="animable"></path><path d="M240.14,121.6c-.09.15-5.68-2.77-12.5-6.51s-12.29-6.91-12.21-7.06,5.68,2.77,12.5,6.52S240.22,121.45,240.14,121.6Z" style="fill: rgb(250, 250, 250); transform-origin: 227.785px 114.815px;" id="el20e6shfqkus" class="animable"></path><path d="M237.3,126.77c-.08.15-5.68-2.77-12.5-6.52s-12.29-6.91-12.21-7,5.68,2.76,12.51,6.51S237.38,126.62,237.3,126.77Z" style="fill: rgb(250, 250, 250); transform-origin: 224.945px 120.012px;" id="elqwefgukgqzi" class="animable"></path><path d="M440.94,209.81l-36,13.86a4.84,4.84,0,0,1-6.24-2.78L379.49,171a4.83,4.83,0,0,1,2.78-6.24L405.11,156l24.7,11.43,13.9,36.14A4.83,4.83,0,0,1,440.94,209.81Z" style="fill: rgb(235, 235, 235); transform-origin: 411.601px 189.994px;" id="elh44y6kgggi4" class="animable"></path><path d="M405.11,156l5.4,14a4.5,4.5,0,0,0,5.81,2.59l13.49-5.19Z" style="fill: rgb(245, 245, 245); transform-origin: 417.46px 164.444px;" id="elyh0zhh61hii" class="animable"></path><path d="M411.17,171.2a5,5,0,0,0,5.44,3.1l.48-.07c1.88-.37,14.27-2.76,14.17-3l-1.45-3.77-13.49,5.19S412.9,173.8,411.17,171.2Z" style="fill: rgb(224, 224, 224); transform-origin: 421.215px 170.911px;" id="eld3etu8i8ly8" class="animable"></path><path d="M407.27,170.62c.07.18-3.61,1.77-8.21,3.54s-8.39,3.05-8.46,2.87,3.61-1.76,8.21-3.53S407.2,170.44,407.27,170.62Z" style="fill: rgb(250, 250, 250); transform-origin: 398.935px 173.825px;" id="ell36lyv7shbq" class="animable"></path><path d="M421.09,174.42c.06.18-6,2.69-13.59,5.6s-13.78,5.13-13.85,4.95,6-2.69,13.59-5.6S421,174.24,421.09,174.42Z" style="fill: rgb(250, 250, 250); transform-origin: 407.37px 179.695px;" id="elun2mlty7zop" class="animable"></path><path d="M426.1,180.1c.07.18-6.56,2.9-14.82,6.07s-15,5.6-15.08,5.42,6.57-2.9,14.83-6.07S426,179.91,426.1,180.1Z" style="fill: rgb(250, 250, 250); transform-origin: 411.15px 185.845px;" id="elsjulqr8ohwk" class="animable"></path><path d="M428.51,186.35c.07.18-6.57,2.9-14.83,6.07s-15,5.61-15.07,5.43,6.56-2.91,14.82-6.08S428.44,186.17,428.51,186.35Z" style="fill: rgb(250, 250, 250); transform-origin: 413.56px 192.1px;" id="els5zsjzb01a" class="animable"></path><path d="M430.91,192.6c.07.18-6.57,2.9-14.82,6.07s-15,5.61-15.08,5.43,6.57-2.9,14.83-6.08S430.84,192.42,430.91,192.6Z" style="fill: rgb(250, 250, 250); transform-origin: 415.96px 198.35px;" id="el4lpau9f6zfg" class="animable"></path><path d="M433.32,198.85c.07.18-6.57,2.9-14.83,6.07s-15,5.61-15.08,5.43,6.57-2.9,14.83-6.08S433.25,198.67,433.32,198.85Z" style="fill: rgb(250, 250, 250); transform-origin: 418.365px 204.6px;" id="elsikssysilc" class="animable"></path><g id="ely20iiohjhdb"><rect x="403.06" y="47.07" width="8.44" height="41.98" style="fill: rgb(224, 224, 224); transform-origin: 407.28px 68.06px; transform: rotate(-0.31deg);" class="animable" id="elbv0g0yse5ah"></rect></g><g id="eldpg4k1pnz0b"><rect x="329.93" y="47.22" width="21.85" height="23.17" style="fill: rgb(235, 235, 235); transform-origin: 340.855px 58.805px; transform: rotate(-0.31deg);" class="animable" id="elottta75y04p"></rect></g><g id="elvt8wbu9y06"><rect x="351.67" y="47.1" width="21.85" height="23.17" style="fill: rgb(245, 245, 245); transform-origin: 362.595px 58.685px; transform: rotate(-0.31deg);" class="animable" id="eluep4srg6s2f"></rect></g><path d="M329.9,53.67q21.78.18,43.59-.2a.23.23,0,0,0,0-.46c-14.52-.08-29.08,0-43.59.27a.19.19,0,0,0,0,.39Z" style="fill: rgb(224, 224, 224); transform-origin: 351.712px 53.3542px;" id="el1stm9jxrxtp" class="animable"></path><g id="elkjio2mg8ltb"><rect x="316.3" y="70.05" width="39.69" height="18.89" style="fill: rgb(235, 235, 235); transform-origin: 336.145px 79.495px; transform: rotate(-0.31deg);" class="animable" id="elo92ocn9u0bf"></rect></g><g id="eld7dc7qsxk9k"><rect x="355.8" y="69.84" width="39.69" height="18.89" style="fill: rgb(245, 245, 245); transform-origin: 375.645px 79.285px; transform: rotate(-0.31deg);" class="animable" id="elh403u8hatng"></rect></g><path d="M316.27,75.41c26.37.3,52.83,0,79.2-.39a.23.23,0,0,0,0-.46c-26.36-.14-52.83-.13-79.19.45a.2.2,0,0,0,0,.4Z" style="fill: rgb(224, 224, 224); transform-origin: 355.89px 75.0088px;" id="elp481fd8qb2" class="animable"></path><rect x="301.43" y="89.04" width="153.77" height="6.77" style="fill: rgb(224, 224, 224); transform-origin: 378.315px 92.425px;" id="eld4kyq566am9" class="animable"></rect><rect x="326.61" y="92.3" width="6.24" height="23.09" style="fill: rgb(224, 224, 224); transform-origin: 329.73px 103.845px;" id="elqu74drap3tg" class="animable"></rect><rect x="419.79" y="92.3" width="6.24" height="23.09" style="fill: rgb(224, 224, 224); transform-origin: 422.91px 103.845px;" id="elv3t53tscitp" class="animable"></rect><g id="eljfkvktrtb7j"><rect x="411.34" y="31.42" width="8.44" height="57.73" style="fill: rgb(235, 235, 235); transform-origin: 415.56px 60.285px; transform: rotate(-0.31deg);" class="animable" id="el9eie4n5vjo5"></rect></g><g id="el5zn1aze4fer"><rect x="419.82" y="42.18" width="13.11" height="46.79" style="fill: rgb(245, 245, 245); transform-origin: 426.375px 65.575px; transform: rotate(-0.572939deg);" class="animable" id="elmadwssr60k"></rect></g><path d="M432.71,51.16a49.22,49.22,0,0,1-6.55.22,49.44,49.44,0,0,1-6.56-.22,93.52,93.52,0,0,1,13.11,0Z" style="fill: rgb(224, 224, 224); transform-origin: 426.155px 51.1684px;" id="eljgtjn59qvch" class="animable"></path><path d="M432.71,49.19a46.27,46.27,0,0,1-6.55.23,46.47,46.47,0,0,1-6.56-.23,93.52,93.52,0,0,1,13.11,0Z" style="fill: rgb(224, 224, 224); transform-origin: 426.155px 49.2048px;" id="el9cndv7y29z4" class="animable"></path><path d="M432.71,81.89a93.52,93.52,0,0,1-13.11,0,93.52,93.52,0,0,1,13.11,0Z" style="fill: rgb(224, 224, 224); transform-origin: 426.155px 81.89px;" id="elkwt3vgpaplp" class="animable"></path><path d="M432.71,79.92a93.52,93.52,0,0,1-13.11,0,97.76,97.76,0,0,1,13.11,0Z" style="fill: rgb(224, 224, 224); transform-origin: 426.155px 79.925px;" id="el25opxd4ooz8" class="animable"></path><path d="M426.37,75.64c-.13,0-.23-4.73-.23-10.55s.1-10.54.23-10.54.22,4.72.22,10.54S426.49,75.64,426.37,75.64Z" style="fill: rgb(224, 224, 224); transform-origin: 426.365px 65.095px;" id="el1mjnagyd9wai" class="animable"></path><rect x="432.85" y="53.63" width="14.27" height="35.31" style="fill: rgb(235, 235, 235); transform-origin: 439.985px 71.285px;" id="elfb65xzex48a" class="animable"></rect><path d="M417.7,41.25a2.43,2.43,0,1,1-2.42-2.42A2.43,2.43,0,0,1,417.7,41.25Z" style="fill: rgb(224, 224, 224); transform-origin: 415.27px 41.26px;" id="el4hfzvr5zz0g" class="animable"></path><rect x="414.53" y="47.92" width="1.5" height="34.34" style="fill: rgb(224, 224, 224); transform-origin: 415.28px 65.09px;" id="ellkw2dwm7a4m" class="animable"></rect><path d="M379.25,367.85a36.07,36.07,0,0,0-15.42-5.3c-2.52-.26-5.27-.19-7.29,1.34a1.48,1.48,0,0,0-.75,1.33,1.63,1.63,0,0,0,.71.91c6.27,4.79,15.76,5.39,22.75,1.72" style="fill: rgb(224, 224, 224); transform-origin: 367.52px 366.328px;" id="ele2q3gymzu8w" class="animable"></path><path d="M378.85,367.42a75.52,75.52,0,0,1-10-8.76,25.26,25.26,0,0,1-6.25-11.55,4.62,4.62,0,0,1,.5-3.86c7.93,6.2,14.17,14.21,15.7,24.17" style="fill: rgb(224, 224, 224); transform-origin: 370.618px 355.335px;" id="elmzuv6d54au" class="animable"></path><path d="M379.17,367.79a35.88,35.88,0,0,1,.18-13.07,17.69,17.69,0,0,1,7-10.79c1.37,3.21.78,6.9-.19,10.25a49.69,49.69,0,0,1-6.9,14.54" style="fill: rgb(224, 224, 224); transform-origin: 382.906px 356.325px;" id="ellc0f34trdoi" class="animable"></path><path d="M387,381.74c-4.72.57-8.84,3.06-12.37,6.26a23.4,23.4,0,0,0-7.07,12.14c4.64-.29,8.57-3.56,11.42-7.22s4.82-7.68,7.95-11.11" style="fill: rgb(224, 224, 224); transform-origin: 377.28px 390.94px;" id="els1otojtilp8" class="animable"></path><path d="M388.64,384a30.48,30.48,0,0,1,3.52-28.85c2.69,9.57,1.7,20.39-3.52,28.85" style="fill: rgb(224, 224, 224); transform-origin: 390.062px 369.575px;" id="elk2g8sug0sm" class="animable"></path><path d="M398.92,396.21a22,22,0,0,0-21.08,12.14,1.6,1.6,0,0,0-.15,1.65,1.58,1.58,0,0,0,1.4.41c4.16-.27,7.84-2.77,10.88-5.61s5.69-6.14,9-8.6" style="fill: rgb(224, 224, 224); transform-origin: 388.249px 403.303px;" id="elmmnol9jwix" class="animable"></path><path d="M398.59,395.54a39.23,39.23,0,0,1-.39-21.93c.77-2.83,2.07-5.8,4.68-7.12a.89.89,0,0,1,.72-.13.92.92,0,0,1,.45.53,13.13,13.13,0,0,1,1.1,6.29,39.4,39.4,0,0,1-1,6.37c-.82,3.89-1.26,8.08-3.4,11.44a22.36,22.36,0,0,0-1.35,2.51c-.41.85-.41,1.15-.78,1.83" style="fill: rgb(224, 224, 224); transform-origin: 401.005px 380.937px;" id="elts6mu92mbml" class="animable"></path><path d="M425.81,399.6c-2-7.67.12-17,4.95-23.26.36-.46.83-1,1.41-.9.89.08,1.12,1.27,1.08,2.16a42,42,0,0,1-7.44,22" style="fill: rgb(224, 224, 224); transform-origin: 429.157px 387.514px;" id="elax6zsikpc1d" class="animable"></path><path d="M428.26,401.28c9.32,2.42,20,.06,27.76-5.65a22.45,22.45,0,0,0-15-1.84c-5,1.14-9.6,3.39-12.73,7.49" style="fill: rgb(224, 224, 224); transform-origin: 442.14px 397.733px;" id="elwak3uakt72q" class="animable"></path><path d="M430.33,396.17c5.22-8.51,15.22-14.06,25.19-14.57-1.15,4.06-4.48,7.21-8.24,9.11s-7.95,2.73-12.09,3.54c-1.61.31-3.82.65-4.86,1.92" style="fill: rgb(224, 224, 224); transform-origin: 442.925px 388.885px;" id="elwave9i1jdp8" class="animable"></path><path d="M426.33,371.39c1.41-4.84,2.83-9.73,3.22-14.76s-.33-10.27-2.94-14.59c-4.87,9.43-5.37,20.45-.43,29.85" style="fill: rgb(224, 224, 224); transform-origin: 426.178px 356.965px;" id="elnuue4ny9rsj" class="animable"></path><path d="M442.74,363.09c5.7-10.36,17.33-18.63,29.1-19.79-4.54,11.3-16.92,20-29.1,19.79" style="fill: rgb(224, 224, 224); transform-origin: 457.29px 353.197px;" id="elb5owd767bcg" class="animable"></path><path d="M439.15,365.12c8.5,1.3,15.75,6.73,23.69,10a10.66,10.66,0,0,0,5.36,1,4.19,4.19,0,0,0,2.62-7.42,11.54,11.54,0,0,0-3.89-2.36c-8.65-3.6-17.93-3.69-27.05-1.51" style="fill: rgb(224, 224, 224); transform-origin: 455.746px 369.762px;" id="el5ax00cx93gv" class="animable"></path><path d="M434.23,371.09c1.93.55,2.58,1.54,4.11,2.84a44.25,44.25,0,0,0,18,9.23c.69.17,1.59.24,1.93-.38s-.08-1.2-.46-1.68a24.74,24.74,0,0,0-10.85-7.36c-4.15-1.55-7.74-3.41-12.69-3" style="fill: rgb(224, 224, 224); transform-origin: 446.313px 376.98px;" id="elnp1t8hxdsz8" class="animable"></path><path d="M428.68,335.07a34,34,0,0,0,26.07,8.87,1.77,1.77,0,0,0,1.18-.43c.66-.71-.13-1.81-.89-2.41-7.67-6-17-8.45-26.36-6" style="fill: rgb(224, 224, 224); transform-origin: 442.428px 339.117px;" id="eli0ie5nn55qf" class="animable"></path><path d="M435.26,332.66a36.32,36.32,0,0,1,32.53-5.36,25.9,25.9,0,0,1-15.5,6.8,48.94,48.94,0,0,1-17-1.44" style="fill: rgb(224, 224, 224); transform-origin: 451.525px 329.947px;" id="elllo2a0oxwdl" class="animable"></path><path d="M432.65,316.11c-.76-7.65-.27-13.68-.8-21.37,0-.61-.17-1.35-.75-1.57-.8-.31-1.46.67-1.73,1.49a24.49,24.49,0,0,0,3.27,21.28" style="fill: rgb(224, 224, 224); transform-origin: 430.453px 304.611px;" id="elr1pg2cdtg3" class="animable"></path><path d="M432.1,317a45,45,0,0,0,12.67-12.32c2.5-3.42,4.61-7.52,4-11.73a12.15,12.15,0,0,0-9.14,4.54,25.51,25.51,0,0,0-4.66,9.38c-1,3.36-1.72,6.82-2.91,10.13" style="fill: rgb(224, 224, 224); transform-origin: 440.468px 304.975px;" id="el7pah0dxehr4" class="animable"></path><path d="M444.55,313.5a102.31,102.31,0,0,0,31.18-18.39c-3.73-1.5-8-.6-11.72.9-8.5,3.44-15.46,9.24-19.63,17.41" style="fill: rgb(224, 224, 224); transform-origin: 460.055px 303.92px;" id="elu9qkxem0r4o" class="animable"></path><path d="M435.6,321.14c5.75.63,11.6,1,17.31.09s10.92-3.17,16.17-5.37a1.94,1.94,0,0,0,1.09-.84,1.25,1.25,0,0,0-.39-1.38,3.45,3.45,0,0,0-1.38-.65c-5.7-1.59-11.86-.84-17.47,1.05a81.06,81.06,0,0,0-15.33,7.1" style="fill: rgb(224, 224, 224); transform-origin: 452.92px 316.95px;" id="elhrnm4m4cm0c" class="animable"></path><path d="M402.73,335.33c-3.93-7.92-3.67-17.17-.28-25.35,2.39,3.64,2.68,8.28,2.24,12.61s-1.75,8.79-1.84,13.14" style="fill: rgb(224, 224, 224); transform-origin: 402.353px 322.855px;" id="elza4dmzg2xdj" class="animable"></path><path d="M387,327.42a35.34,35.34,0,0,0-26.27,11.19c4.89.77,9.93-.49,14.38-2.66a73.52,73.52,0,0,0,12.33-8.26" style="fill: rgb(224, 224, 224); transform-origin: 374.085px 333.127px;" id="el2h6qa7k6zeg" class="animable"></path><path d="M376.49,323.89c-4.8-.39-9.41-1-14,.43s-8.81,4.62-10.69,9.07a25.37,25.37,0,0,0,13.15-2.49,75,75,0,0,0,11.56-7" style="fill: rgb(224, 224, 224); transform-origin: 364.155px 328.446px;" id="el3tfyw5ae5ge" class="animable"></path><path d="M392.11,324.05c-4.32-2.82-8.75-5.7-13.77-6.87s-10.85-.31-14.35,3.48c4.06,2.38,9,2.67,13.71,2.66s10.5-.05,14.95,1.52" style="fill: rgb(224, 224, 224); transform-origin: 378.32px 320.767px;" id="elrrfinq7z36" class="animable"></path><path d="M392.13,324.28C384.76,317,382,304,384.93,294.12a45.94,45.94,0,0,1,7.2,30.16" style="fill: rgb(224, 224, 224); transform-origin: 388.093px 309.2px;" id="eli9zoa1d87wk" class="animable"></path><path d="M412.42,303.76c1.39-3.24,2.37-6.63,3.62-9.92a28.41,28.41,0,0,1,5.16-9.15,13.57,13.57,0,0,1,9.13-4.74,36.79,36.79,0,0,1-17.73,23.86" style="fill: rgb(224, 224, 224); transform-origin: 421.375px 291.88px;" id="elp1inrmqadzn" class="animable"></path><path d="M408.75,308c-2.3-3.17-5-7.47-8.09-9.83s-7.18-3.8-11-2.89A25.57,25.57,0,0,0,408.75,308" style="fill: rgb(224, 224, 224); transform-origin: 399.205px 301.502px;" id="eli3mnufr1b3" class="animable"></path><path d="M409.48,304a54.53,54.53,0,0,1-3.64-11.79,18.35,18.35,0,0,1,1.85-12c4.05,7.66,5.35,15.87,2,23.86" style="fill: rgb(224, 224, 224); transform-origin: 408.565px 292.14px;" id="elsbsnglw7js" class="animable"></path><path d="M412.46,280.25c2.29-7.59,9.24-13.18,16.74-15.74a6.35,6.35,0,0,1,2.94-.44,2.55,2.55,0,0,1,2.16,1.81c.27,1.29-.79,2.44-1.79,3.3a57,57,0,0,1-20.05,11.07" style="fill: rgb(224, 224, 224); transform-origin: 423.401px 272.148px;" id="elh88jgi4hhb" class="animable"></path><path d="M412.54,274c.29-4.89.6-9.85,2.19-14.49s4.66-9,9.12-11c.76,4.94-1.42,9.86-4.05,14.11s-5.8,8.26-7.38,13" style="fill: rgb(224, 224, 224); transform-origin: 418.212px 262.065px;" id="elmk7vux342zb" class="animable"></path><path d="M412.42,277.41c-1.9-5.53-2.09-12.55-5.4-17.37-2.32-3.37-6-5.66-8-9.23a14,14,0,0,0,.47,10.48,30.33,30.33,0,0,0,6.12,8.77c2.45,2.62,4.55,4.58,6.83,7.35" style="fill: rgb(224, 224, 224); transform-origin: 405.331px 264.11px;" id="elhm3w0w31ilf" class="animable"></path><path d="M412.46,440.28c-.15,0-.28-36.89-.29-82.39s.1-82.4.25-82.4.27,36.88.29,82.4S412.6,440.28,412.46,440.28Z" style="fill: rgb(224, 224, 224); transform-origin: 412.441px 357.885px;" id="elvw39g2ujwu" class="animable"></path><path d="M444.7,329.77a8.6,8.6,0,0,1-1.39.52l-3.82,1.29c-3.22,1.09-7.64,2.68-12.44,4.65s-9.23,3.69-11.78,5.9a8.58,8.58,0,0,0-2.37,3.13c-.37.87-.43,1.4-.48,1.39s0-.13,0-.39a5.16,5.16,0,0,1,.27-1.07,8.31,8.31,0,0,1,2.31-3.34,20.84,20.84,0,0,1,5.11-3.18c2.05-.95,4.31-1.95,6.72-2.94,4.81-2,9.27-3.51,12.53-4.51,1.62-.51,2.95-.88,3.87-1.13A7.35,7.35,0,0,1,444.7,329.77Z" style="fill: rgb(224, 224, 224); transform-origin: 428.549px 338.21px;" id="el1bjy11kuzfe" class="animable"></path><path d="M455.27,303.81a3.5,3.5,0,0,1-.39.41l-1.19,1.12-4.42,4-14.71,13.1c-5.74,5.11-10.7,10-14.14,13.67-1.72,1.84-3.08,3.36-4,4.42-.44.49-.79.9-1.07,1.22a2.71,2.71,0,0,1-.4.41s.09-.18.31-.48.55-.74,1-1.28c.88-1.11,2.19-2.67,3.88-4.55a186.14,186.14,0,0,1,14.07-13.81c5.76-5.1,11-9.68,14.81-13l4.54-3.89,1.25-1C455.09,303.91,455.25,303.79,455.27,303.81Z" style="fill: rgb(224, 224, 224); transform-origin: 435.11px 322.984px;" id="el16f4zgvbj1w" class="animable"></path><path d="M428.36,327.65c-.15-.07,1.05-2.84,2.25-6.34s1.77-6.46,1.93-6.44a21.82,21.82,0,0,1-1.43,6.61,42.86,42.86,0,0,1-1.78,4.43A7.1,7.1,0,0,1,428.36,327.65Z" style="fill: rgb(224, 224, 224); transform-origin: 430.444px 321.26px;" id="elwvr5b4b34vc" class="animable"></path><path d="M412.49,350a7.07,7.07,0,0,1-.88-1L409.34,346c-1.91-2.46-4.54-5.86-7.49-9.57s-5.66-7.06-7.63-9.47l-2.31-2.87a6.8,6.8,0,0,1-.8-1.09,6.1,6.1,0,0,1,1,1c.59.64,1.42,1.58,2.44,2.76,2,2.35,4.8,5.65,7.76,9.37s5.54,7.16,7.37,9.69c.92,1.26,1.64,2.28,2.13,3A6.39,6.39,0,0,1,412.49,350Z" style="fill: rgb(224, 224, 224); transform-origin: 401.8px 336.5px;" id="el3qcz70h2cuf" class="animable"></path><path d="M405.42,340.9a13,13,0,0,1-3-5.54,15.81,15.81,0,0,1-.67-5.59l.23,0c-.1.42-.18.65-.22.64s0-.24,0-.68l.24,0a24.82,24.82,0,0,0,.94,5.43A41.64,41.64,0,0,0,405.42,340.9Z" style="fill: rgb(224, 224, 224); transform-origin: 403.571px 335.315px;" id="elw6hm7qwmpih" class="animable"></path><path d="M396.3,329.42a9.55,9.55,0,0,0-2.07-1.2,13.81,13.81,0,0,0-5.74-.46,35.15,35.15,0,0,0-5.78.94,19,19,0,0,1-2.38.57,7.74,7.74,0,0,1,2.27-.94,26.9,26.9,0,0,1,5.85-1.1,12.52,12.52,0,0,1,5.92.64A3.72,3.72,0,0,1,396.3,329.42Z" style="fill: rgb(224, 224, 224); transform-origin: 388.315px 328.27px;" id="el0o8nffc93319" class="animable"></path><path d="M394.13,326.64c0,.08-1.2-.48-3.17-1.16a32,32,0,0,0-16-1.21c-2,.36-3.28.75-3.31.66a3,3,0,0,1,.84-.36,18.5,18.5,0,0,1,2.4-.67,28.22,28.22,0,0,1,16.16,1.23,18.82,18.82,0,0,1,2.27,1A3.11,3.11,0,0,1,394.13,326.64Z" style="fill: rgb(224, 224, 224); transform-origin: 382.89px 324.948px;" id="eln4c23n22iv" class="animable"></path><path d="M412.42,314.87a64.86,64.86,0,0,1-2.31-8,64.16,64.16,0,0,1-1.79-8.16,68.27,68.27,0,0,1,2.31,8A66.4,66.4,0,0,1,412.42,314.87Z" style="fill: rgb(224, 224, 224); transform-origin: 410.37px 306.79px;" id="elffntsc7boil" class="animable"></path><path d="M412.57,314.87a39.51,39.51,0,0,0-2.56-4.8,20.88,20.88,0,0,0-3.77-3.89,3.38,3.38,0,0,1,1.45.75,11.63,11.63,0,0,1,2.75,2.83A10.61,10.61,0,0,1,412.57,314.87Z" style="fill: rgb(224, 224, 224); transform-origin: 409.405px 310.525px;" id="el6jh1z94b2cg" class="animable"></path><path d="M412.46,420.61c-.06,0-.17-.88-.58-2.45a35.7,35.7,0,0,0-2.47-6.39c-2.55-5.21-7.19-11.81-13.08-18.43-2.92-3.33-5.75-6.48-8.16-9.49a65.76,65.76,0,0,1-5.83-8.42,40.38,40.38,0,0,1-2.95-6.24c-.27-.77-.47-1.37-.58-1.79a3.16,3.16,0,0,1-.15-.64s.32.85.93,2.35a44.22,44.22,0,0,0,3.07,6.13,72.45,72.45,0,0,0,5.89,8.3c2.42,3,5.26,6.11,8.18,9.45,5.91,6.63,10.54,13.32,13,18.62a32.11,32.11,0,0,1,2.33,6.5,17.65,17.65,0,0,1,.32,1.85A2.67,2.67,0,0,1,412.46,420.61Z" style="fill: rgb(224, 224, 224); transform-origin: 395.56px 393.685px;" id="elm9o7stekrk" class="animable"></path><path d="M441.59,387.71a12.66,12.66,0,0,1-1.53.85,33.22,33.22,0,0,0-4,2.62,46.25,46.25,0,0,0-5.2,4.74c-1.82,1.93-3.7,4.17-5.62,6.57-3.84,4.82-7.43,9.08-9.58,12.48-1.09,1.69-1.88,3.11-2.4,4.11a13.81,13.81,0,0,1-.84,1.53s0-.15.14-.43.27-.69.51-1.2a39,39,0,0,1,2.27-4.21c2.09-3.49,5.65-7.8,9.48-12.61,1.92-2.41,3.83-4.65,5.69-6.58a41.75,41.75,0,0,1,5.33-4.7,27.47,27.47,0,0,1,4.09-2.5c.5-.25.92-.41,1.19-.53S441.58,387.69,441.59,387.71Z" style="fill: rgb(224, 224, 224); transform-origin: 427.005px 404.158px;" id="el3yhjm2e8vmx" class="animable"></path><path d="M442.16,398.38a21.34,21.34,0,0,1-3.23.47,42.85,42.85,0,0,0-7.65,1.51,23,23,0,0,0-6.85,3.59c-1.58,1.22-2.33,2.23-2.4,2.18s.13-.3.48-.75a12.3,12.3,0,0,1,1.68-1.72,20.91,20.91,0,0,1,6.93-3.81,35,35,0,0,1,7.78-1.38A18.09,18.09,0,0,1,442.16,398.38Z" style="fill: rgb(224, 224, 224); transform-origin: 432.088px 402.238px;" id="el1xmran4o5dw" class="animable"></path><path d="M423,405c-.17-.09,1.29-2.31,2.41-5.3s1.31-5.66,1.5-5.63a5,5,0,0,1-.05,1.73,18.77,18.77,0,0,1-.94,4.08,19.85,19.85,0,0,1-1.88,3.74A5,5,0,0,1,423,405Z" style="fill: rgb(224, 224, 224); transform-origin: 424.974px 399.535px;" id="el2kpsbubbt7h" class="animable"></path><path d="M451,359.05a3.77,3.77,0,0,1-.52.27L449,360c-.66.29-1.47.65-2.38,1.13s-2,.95-3.08,1.62l-1.76,1c-.61.35-1.22.76-1.86,1.17-1.3.78-2.6,1.75-4,2.74a74.33,74.33,0,0,0-8.32,7.32,73.5,73.5,0,0,0-7,8.57c-.95,1.42-1.87,2.75-2.61,4.08-.38.65-.78,1.27-1.11,1.89l-.94,1.8c-.63,1.13-1.08,2.21-1.51,3.13s-.79,1.75-1.05,2.42-.47,1.13-.63,1.54a2.38,2.38,0,0,1-.26.52,2.8,2.8,0,0,1,.15-.56c.15-.41.33-.94.55-1.58s.54-1.52,1-2.46.84-2,1.45-3.18c.3-.58.6-1.19.92-1.82s.71-1.26,1.08-1.93c.74-1.34,1.65-2.69,2.59-4.13a72.51,72.51,0,0,1,7.05-8.66,71.38,71.38,0,0,1,8.41-7.34c1.41-1,2.73-1.95,4.05-2.73.65-.39,1.26-.8,1.88-1.15l1.79-1c1.13-.64,2.21-1.11,3.14-1.55a26.2,26.2,0,0,1,2.42-1.05l1.56-.6A2.1,2.1,0,0,1,451,359.05Z" style="fill: rgb(224, 224, 224); transform-origin: 431.745px 378.99px;" id="elaiawn4ykn9r" class="animable"></path><path d="M428,374.5a3.66,3.66,0,0,1,1.27-1.89,7.91,7.91,0,0,1,5.1-2,13.85,13.85,0,0,1,5.38,1.05,7.74,7.74,0,0,1,2,1,11.06,11.06,0,0,1-2.15-.63,16.23,16.23,0,0,0-5.24-.87,8.35,8.35,0,0,0-4.88,1.71A14.15,14.15,0,0,0,428,374.5Z" style="fill: rgb(224, 224, 224); transform-origin: 434.875px 372.555px;" id="elz0449pxn0x" class="animable"></path><path d="M424.52,378.05a18.62,18.62,0,0,0,1.45-4.72,19.36,19.36,0,0,0-.32-4.93,3.15,3.15,0,0,1,.6,1.38,9.56,9.56,0,0,1,.25,3.61,9.73,9.73,0,0,1-1.08,3.46C425,377.67,424.57,378.09,424.52,378.05Z" style="fill: rgb(224, 224, 224); transform-origin: 425.545px 373.226px;" id="elr3lcxx46y4o" class="animable"></path><path d="M387,425.9c.79,14.1,5,28.44,11.57,42.93H427c6.24-14.35,10.19-28.67,10.89-42.93Z" style="fill: rgb(224, 224, 224); transform-origin: 412.445px 447.365px;" id="el2hq1dtf781g" class="animable"></path><path d="M433.26,448.71c0,.15-9.36.27-20.9.27s-20.9-.12-20.9-.27,9.36-.26,20.9-.26S433.26,448.57,433.26,448.71Z" style="fill: rgb(250, 250, 250); transform-origin: 412.36px 448.715px;" id="elc9eb3w27qte" class="animable"></path><path d="M432.62,453.82c0,.15-8.77.27-19.59.27s-19.59-.12-19.59-.27,8.77-.27,19.59-.27S432.62,453.67,432.62,453.82Z" style="fill: rgb(250, 250, 250); transform-origin: 413.03px 453.82px;" id="elawcxxjfuxd7" class="animable"></path><path d="M399,435.16a79.46,79.46,0,0,1,0,13.09,82.51,82.51,0,0,1,0-13.09Z" style="fill: rgb(250, 250, 250); transform-origin: 399.005px 441.705px;" id="el9ycx3fvfcij" class="animable"></path><path d="M414.24,435.16a85.14,85.14,0,0,1,0,13.55,85.14,85.14,0,0,1,0-13.55Z" style="fill: rgb(250, 250, 250); transform-origin: 414.24px 441.935px;" id="elrlhd5vvptdb" class="animable"></path><path d="M428.53,435a88.69,88.69,0,0,1,0,13.83,92.09,92.09,0,0,1,0-13.83Z" style="fill: rgb(250, 250, 250); transform-origin: 428.535px 441.915px;" id="el24dir1jupvp" class="animable"></path><path d="M437,435.16c0,.14-11,.26-24.51.26s-24.51-.12-24.51-.26,11-.27,24.51-.27S437,435,437,435.16Z" style="fill: rgb(250, 250, 250); transform-origin: 412.49px 435.155px;" id="ell7hkhh79kqo" class="animable"></path><rect x="76.6" y="41.31" width="73.65" height="76.77" style="fill: rgb(224, 224, 224); transform-origin: 113.425px 79.695px;" id="elnj8z3hywnzj" class="animable"></rect><rect x="71.61" y="41.31" width="73.65" height="76.77" style="fill: rgb(250, 250, 250); transform-origin: 108.435px 79.695px;" id="el8scf0tj7a1m" class="animable"></rect><path d="M145.28,118.11H71.59V41.29h73.69Zm-73.65,0h73.61V41.33H71.63Z" style="fill: rgb(224, 224, 224); transform-origin: 108.435px 79.7px;" id="elsjoeg8y9ns" class="animable"></path><rect x="81.51" y="51.63" width="53.85" height="56.13" style="fill: rgb(250, 250, 250); transform-origin: 108.435px 79.695px;" id="elvkkvl4gyttb" class="animable"></rect><path d="M81.51,108.14a9.21,9.21,0,0,1-1.33,1.54c-.86.91-2.07,2.14-3.42,3.47s-2.6,2.52-3.52,3.37a8.24,8.24,0,0,1-1.56,1.29A9.44,9.44,0,0,1,73,116.28c.86-.91,2.07-2.14,3.43-3.48s2.6-2.53,3.52-3.37A8.28,8.28,0,0,1,81.51,108.14Z" style="fill: rgb(224, 224, 224); transform-origin: 76.595px 112.975px;" id="elzlmhr79l19" class="animable"></path><path d="M135.36,108a8.76,8.76,0,0,1,1.54,1.33c.91.86,2.14,2.07,3.48,3.42s2.52,2.6,3.36,3.52a8.66,8.66,0,0,1,1.3,1.55,8.27,8.27,0,0,1-1.54-1.32c-.91-.86-2.14-2.07-3.48-3.43s-2.53-2.6-3.37-3.52A8.82,8.82,0,0,1,135.36,108Z" style="fill: rgb(224, 224, 224); transform-origin: 140.2px 112.91px;" id="elh4cfeo48sku" class="animable"></path><path d="M135.21,51.78a9,9,0,0,1,1.33-1.55c.86-.9,2.07-2.13,3.42-3.47s2.6-2.52,3.52-3.36A8.1,8.1,0,0,1,145,42.1a8.27,8.27,0,0,1-1.32,1.54c-.86.91-2.07,2.14-3.43,3.48s-2.61,2.53-3.53,3.37A8.41,8.41,0,0,1,135.21,51.78Z" style="fill: rgb(224, 224, 224); transform-origin: 140.105px 46.94px;" id="el68pym2tm1jc" class="animable"></path><path d="M81.36,51.92a9.21,9.21,0,0,1-1.54-1.33c-.91-.86-2.14-2.07-3.47-3.42s-2.52-2.6-3.37-3.52a8.24,8.24,0,0,1-1.29-1.56,9,9,0,0,1,1.53,1.32c.91.86,2.14,2.07,3.48,3.43s2.53,2.61,3.37,3.53A8.28,8.28,0,0,1,81.36,51.92Z" style="fill: rgb(224, 224, 224); transform-origin: 76.525px 47.005px;" id="elafg6mot02lk" class="animable"></path><path d="M135.21,107.76s0-.09,0-.27,0-.45,0-.78c0-.71,0-1.72,0-3,0-2.66,0-6.53,0-11.44,0-9.84-.06-23.84-.1-40.61l.2.21-53.69,0h0l.24-.24c0,20.6,0,39.88,0,56.13l-.21-.2,38.88.1,10.93.06,2.89,0h1s-.07,0-.23,0l-.73,0-2.85,0-10.88,0-39,.11h-.2v-.21c0-16.25,0-35.53,0-56.13v-.24h.25l53.69,0h.21v.21c0,16.82-.08,30.88-.11,40.74,0,4.89,0,8.74-.05,11.39,0,1.3,0,2.3,0,3,0,.33,0,.58,0,.76A.87.87,0,0,1,135.21,107.76Z" style="fill: rgb(224, 224, 224); transform-origin: 108.535px 79.54px;" id="elsgtw5oy70ob" class="animable"></path><rect x="99.45" y="70.71" width="17.97" height="17.97" style="fill: rgb(235, 235, 235); transform-origin: 108.435px 79.695px;" id="elk7nt205r2m" class="animable"></rect><rect x="30.37" y="135.55" width="52.9" height="55.14" style="fill: rgb(224, 224, 224); transform-origin: 56.82px 163.12px;" id="elvudj7yppng" class="animable"></rect><rect x="26.78" y="135.55" width="52.9" height="55.14" style="fill: rgb(250, 250, 250); transform-origin: 53.23px 163.12px;" id="elky6elizpv0o" class="animable"></rect><path d="M79.7,190.71H26.77V135.53H79.7Zm-52.9,0H79.67V135.57H26.8Z" style="fill: rgb(224, 224, 224); transform-origin: 53.235px 163.12px;" id="elca4wpjseh05" class="animable"></path><rect x="33.9" y="142.96" width="38.68" height="40.32" style="fill: rgb(250, 250, 250); transform-origin: 53.24px 163.12px;" id="elrlvikyjmnt" class="animable"></rect><path d="M33.9,183.55a6.62,6.62,0,0,1-1,1.11c-.62.65-1.48,1.53-2.46,2.49S28.61,189,28,189.57a6.22,6.22,0,0,1-1.12.93,5.88,5.88,0,0,1,.95-1.1c.61-.66,1.48-1.54,2.46-2.5s1.87-1.82,2.53-2.43A5.51,5.51,0,0,1,33.9,183.55Z" style="fill: rgb(224, 224, 224); transform-origin: 30.39px 187.025px;" id="elfkrfvoy2pyv" class="animable"></path><path d="M72.57,183.45a6.35,6.35,0,0,1,1.11,1c.65.62,1.54,1.49,2.5,2.46s1.81,1.87,2.41,2.53a6.2,6.2,0,0,1,.94,1.12,5.83,5.83,0,0,1-1.11-.95c-.65-.62-1.54-1.49-2.5-2.47s-1.81-1.87-2.42-2.53A6.41,6.41,0,0,1,72.57,183.45Z" style="fill: rgb(224, 224, 224); transform-origin: 76.05px 187.005px;" id="elatyfe2x0elb" class="animable"></path><path d="M72.47,143.07a5.83,5.83,0,0,1,1-1.11c.62-.65,1.49-1.53,2.46-2.49s1.87-1.82,2.53-2.42a5.39,5.39,0,0,1,1.12-.93,7.06,7.06,0,0,1-1,1.1c-.62.65-1.49,1.54-2.47,2.5s-1.87,1.82-2.53,2.42A5.87,5.87,0,0,1,72.47,143.07Z" style="fill: rgb(224, 224, 224); transform-origin: 76.025px 139.595px;" id="elx5hdwkakdmo" class="animable"></path><path d="M33.79,143.17a6.19,6.19,0,0,1-1.11-1c-.65-.61-1.53-1.48-2.49-2.45s-1.82-1.87-2.42-2.53a5.71,5.71,0,0,1-.93-1.12,6.42,6.42,0,0,1,1.1.95c.65.62,1.54,1.49,2.5,2.46s1.82,1.88,2.42,2.54A5.52,5.52,0,0,1,33.79,143.17Z" style="fill: rgb(224, 224, 224); transform-origin: 30.315px 139.62px;" id="elbw3e5a6sc8e" class="animable"></path><path d="M72.47,183.28a.63.63,0,0,1,0-.2c0-.13,0-.32,0-.56,0-.5,0-1.23,0-2.18,0-1.91,0-4.68,0-8.21,0-7.06,0-17.12-.07-29.17l.15.15-38.57,0h0l.17-.17c0,14.8,0,28.64,0,40.32l-.14-.15,27.92.08,7.85,0h.06l-7.81,0-28,.08h-.15v-.15c0-11.68,0-25.52,0-40.32v-.17h.18l38.57,0h.15V143c0,12.09-.06,22.18-.08,29.26,0,3.52,0,6.28,0,8.19,0,.93,0,1.65,0,2.14v.55C72.47,183.22,72.47,183.28,72.47,183.28Z" style="fill: rgb(224, 224, 224); transform-origin: 53.33px 162.955px;" id="el19fq5r99rsg" class="animable"></path><rect x="46.78" y="156.67" width="12.91" height="12.91" style="fill: rgb(235, 235, 235); transform-origin: 53.235px 163.125px;" id="el64stn6yziba" class="animable"></rect><path d="M48.36,469.11s-15-78-15.09-94c0-22.2,16.95-31,16.95-31l-6.6-18.83H79.94l-5.73,18.7s19.12,10.14,16.46,33.17c-5,43.05-12.94,92-12.94,92Z" style="fill: rgb(245, 245, 245); transform-origin: 62.0969px 397.215px;" id="eljxk6td1hvdl" class="animable"></path><path d="M83,352.88l-.4,0a11.19,11.19,0,0,0-1.18-.05,11.43,11.43,0,0,0-4.41,1,15.41,15.41,0,0,0-5.66,4.32,27,27,0,0,0-2.6,3.66,30.9,30.9,0,0,0-2.28,4.49,13.21,13.21,0,0,0-1.06,5.35A8.35,8.35,0,0,0,67.56,377a5.86,5.86,0,0,0,2.57,1.61,5.1,5.1,0,0,0,3.09-.08,7.29,7.29,0,0,0,4.36-4.71,7,7,0,0,0-1.52-6.51,10.64,10.64,0,0,0-6.23-3.61,14.31,14.31,0,0,0-7.51.9,24.53,24.53,0,0,0-14.68,17.28,16.4,16.4,0,0,0,.14,7.35,10.84,10.84,0,0,0,3.58,5.94,6.19,6.19,0,0,0,3,1.38,4.69,4.69,0,0,0,3.1-.61,6.4,6.4,0,0,0,2.77-5.32,6.57,6.57,0,0,0-.58-2.9,7.22,7.22,0,0,0-1.73-2.28,10.12,10.12,0,0,0-4.9-2.28,14.08,14.08,0,0,0-9.16,1.58,16.51,16.51,0,0,0-5.4,4.66,15,15,0,0,0-2.18,4c-.37,1-.49,1.52-.52,1.51a9.57,9.57,0,0,1,.42-1.54,14.32,14.32,0,0,1,2.12-4.06,16.42,16.42,0,0,1,5.42-4.79,14.23,14.23,0,0,1,9.36-1.69,10.46,10.46,0,0,1,5.1,2.34,7.6,7.6,0,0,1,1.85,2.4,7,7,0,0,1,.63,3.08,6.8,6.8,0,0,1-3,5.71,5.07,5.07,0,0,1-3.41.68,6.53,6.53,0,0,1-3.24-1.47,11.3,11.3,0,0,1-3.76-6.19,16.94,16.94,0,0,1-.17-7.57,25,25,0,0,1,15-17.66,14.69,14.69,0,0,1,7.79-.92,11,11,0,0,1,6.52,3.8,8.52,8.52,0,0,1,1.69,3.32,6.71,6.71,0,0,1-.09,3.64,7.72,7.72,0,0,1-4.67,5A5.55,5.55,0,0,1,70,379a6.35,6.35,0,0,1-2.76-1.75A8.69,8.69,0,0,1,65,371.61a13.8,13.8,0,0,1,1.11-5.51,31.4,31.4,0,0,1,2.35-4.52,26.79,26.79,0,0,1,2.66-3.68,15.62,15.62,0,0,1,5.8-4.32,11.12,11.12,0,0,1,4.49-.88A7.19,7.19,0,0,1,83,352.88Z" style="fill: rgb(224, 224, 224); transform-origin: 59.38px 374.899px;" id="elytl0ntgs0wq" class="animable"></path><path d="M84,411.79a13.24,13.24,0,0,1-.33,4,17.54,17.54,0,0,1-1.6,4.4,16.78,16.78,0,0,1-3.8,4.89,15.78,15.78,0,0,1-6.65,3.49,16.17,16.17,0,0,1-8.61-.12A15,15,0,0,1,55.21,423a14.48,14.48,0,0,1-3-9.71,7.21,7.21,0,0,1,2.15-4.78,5.22,5.22,0,0,1,5-1,6.19,6.19,0,0,1,3.83,3.07,7.06,7.06,0,0,1,.51,4.7,8.76,8.76,0,0,1-2.08,4,10.07,10.07,0,0,1-3.49,2.4,14.45,14.45,0,0,1-7.44.94,17.6,17.6,0,0,1-5.93-1.82,17.12,17.12,0,0,1-3.85-2.67,13.14,13.14,0,0,1-2.57-3s.07.06.18.19l.48.6A19,19,0,0,0,41,417.93a17.72,17.72,0,0,0,3.84,2.56,17.29,17.29,0,0,0,5.84,1.71,14.25,14.25,0,0,0,7.23-1,9.65,9.65,0,0,0,3.32-2.32,8.22,8.22,0,0,0,2-3.77,6.62,6.62,0,0,0-.48-4.37A5.72,5.72,0,0,0,59.2,408a4.7,4.7,0,0,0-4.47.88,6.68,6.68,0,0,0-2,4.44,14,14,0,0,0,2.87,9.36A14.58,14.58,0,0,0,63.1,428a15.76,15.76,0,0,0,8.36.16A15.48,15.48,0,0,0,78,424.78,16.56,16.56,0,0,0,81.76,420a17.31,17.31,0,0,0,1.66-4.31,18.84,18.84,0,0,0,.45-2.89c0-.31,0-.57,0-.77A.9.9,0,0,1,84,411.79Z" style="fill: rgb(224, 224, 224); transform-origin: 61.1861px 418.176px;" id="elz64lgiiu7jj" class="animable"></path><path d="M77.18,448.54c-.05.11-1.63-.75-4.38-1.54a19.4,19.4,0,0,0-2.27-.55c-.82-.19-1.71-.28-2.65-.4a31.36,31.36,0,0,0-6.12,0,32,32,0,0,0-6,1.32c-.88.33-1.74.61-2.49,1a21.69,21.69,0,0,0-2.1,1c-2.51,1.38-3.86,2.56-3.93,2.47a6.18,6.18,0,0,1,.93-.84,10.08,10.08,0,0,1,1.17-.89A18.36,18.36,0,0,1,51,449.09,19.34,19.34,0,0,1,53.1,448c.76-.38,1.62-.69,2.52-1a29.5,29.5,0,0,1,6.08-1.39,30.8,30.8,0,0,1,6.23,0c1,.14,1.86.25,2.69.46a19.37,19.37,0,0,1,2.29.61c.7.19,1.3.47,1.84.67a11,11,0,0,1,1.34.61A5.72,5.72,0,0,1,77.18,448.54Z" style="fill: rgb(224, 224, 224); transform-origin: 62.21px 448.648px;" id="elteo49dbc1je" class="animable"></path><path d="M74.65,345a7.59,7.59,0,0,1-1.21.84c-.78.52-2,1.22-3.45,2a59.64,59.64,0,0,1-12.28,4.8,60.42,60.42,0,0,1-13,2c-1.69.06-3.06,0-4,0a8.23,8.23,0,0,1-1.46-.12,7.69,7.69,0,0,1,1.46-.08c.94,0,2.3-.05,4-.16a67.71,67.71,0,0,0,12.91-2.12,68.65,68.65,0,0,0,12.25-4.63c1.5-.75,2.7-1.38,3.52-1.85A7.77,7.77,0,0,1,74.65,345Z" style="fill: rgb(224, 224, 224); transform-origin: 56.95px 349.833px;" id="elz6bte35uoah" class="animable"></path><path d="M79.22,326.1c0,.06-.89-.08-2.5-.08A21.34,21.34,0,0,0,70,327.11a20.89,20.89,0,0,0-4.25,1.94,19.09,19.09,0,0,0-2.14,1.48,10.35,10.35,0,0,0-2,1.9,5.69,5.69,0,0,0-1.19,2.5,2.85,2.85,0,0,0,.84,2.58A6.26,6.26,0,0,0,64,338.87a6.73,6.73,0,0,0,3.08.35,2.34,2.34,0,0,0,1.66-2.2,5.47,5.47,0,0,0-.61-2.92A9.21,9.21,0,0,0,64.1,330,11.68,11.68,0,0,0,59,328.65a13.87,13.87,0,0,0-4.59.68,20.66,20.66,0,0,0-6,3.15c-.64.48-1.13.87-1.46,1.14a2.67,2.67,0,0,1-.52.39,3.49,3.49,0,0,1,.45-.47c.31-.29.78-.71,1.41-1.22a19.87,19.87,0,0,1,6-3.34,13.89,13.89,0,0,1,4.71-.76,12,12,0,0,1,5.3,1.38,9.77,9.77,0,0,1,4.29,4.27,5.93,5.93,0,0,1,.66,3.2,3.4,3.4,0,0,1-.57,1.64,2.56,2.56,0,0,1-1.47,1,7.3,7.3,0,0,1-3.35-.36,6.62,6.62,0,0,1-2.9-1.5,3.35,3.35,0,0,1-1-3,6.05,6.05,0,0,1,1.31-2.73,10.8,10.8,0,0,1,2-2,18.53,18.53,0,0,1,2.2-1.49,20.68,20.68,0,0,1,4.36-1.92,20.35,20.35,0,0,1,6.79-.95,17.37,17.37,0,0,1,1.86.17A2.85,2.85,0,0,1,79.22,326.1Z" style="fill: rgb(224, 224, 224); transform-origin: 62.825px 332.759px;" id="el9mgcibcpp5o" class="animable"></path></g><g id="freepik--Floor--inject-2" class="animable" style="transform-origin: 248.265px 469.3px;"><path d="M465.3,469.3c0,.15-97.19.26-217,.26s-217.07-.11-217.07-.26,97.17-.26,217.07-.26S465.3,469.16,465.3,469.3Z" style="fill: rgb(38, 50, 56); transform-origin: 248.265px 469.3px;" id="elci86387914" class="animable"></path></g><g id="freepik--Character--inject-2" class="animable" style="transform-origin: 171.877px 281.565px;"><path d="M229.31,162.83s10.29-9.27,11.77-9.84,13.44-1.27,14.27-.7,13.21,6.73,11.24,7.83S256,156.79,256,156.79l-1.41.24s7.48,3.62,8.85,5.08.17,3-1.22,2.46-7.83-4-8.32-3.8,6.88,4.08,7.57,4.83c.93,1,.44,3.07-1,2.54-.83-.32-7.64-4.45-7.64-4.45s5.17,4,5.56,4.7c.63,1.1-.46,2.17-1.64,1.5-.81-.45-4.36-3.67-5.45-4.28,0,0-1.18,0-2.83,1.87-.79.91-5,6-8.39,3.76l-3.74,2.92Z" style="fill: rgb(255, 190, 157); transform-origin: 248.056px 163.119px;" id="el28gxfv9wgmu" class="animable"></path><path d="M266.56,160.14a6.24,6.24,0,0,1-2.58-.06,14.56,14.56,0,0,1-2.72-.7c-1-.41-2-.89-3.1-1.39l-2.33-1.09.15,0a36.11,36.11,0,0,1-6.16.06,36.86,36.86,0,0,1,6.13-.67H256l.08,0,2.31,1.05,3.06,1.43a18.33,18.33,0,0,0,2.6.81C265.59,160,266.56,160,266.56,160.14Z" style="fill: rgb(235, 153, 110); transform-origin: 258.19px 158.268px;" id="elv81ey3lc64f" class="animable"></path><path d="M277,200l-32.35-8a4.17,4.17,0,0,1-3.05-5.05l11-44.78a4.17,4.17,0,0,1,5-3l20.52,5,11.85,20.29-8,32.45A4.17,4.17,0,0,1,277,200Z" style="fill: #14C888; transform-origin: 265.724px 169.579px;" id="elf9uxoy4f5f7" class="animable"></path><path d="M278.23,144.2l-3.1,12.61A3.86,3.86,0,0,0,278,161.5l12.12,3Z" style="fill: #14C888; transform-origin: 282.568px 154.35px;" id="elak6jbf1k2hn" class="animable"></path><path d="M272.54,155.62c0,.17-3.42-.53-7.56-1.55a49.15,49.15,0,0,1-7.41-2.13,49.59,49.59,0,0,1,7.56,1.55A50.58,50.58,0,0,1,272.54,155.62Z" style="fill: rgb(250, 250, 250); transform-origin: 265.055px 153.793px;" id="el68rpymsdxgw" class="animable"></path><path d="M280.45,165.13c0,.16-5.59-1.06-12.39-2.74s-12.28-3.16-12.24-3.33,5.58,1.07,12.39,2.74S280.49,165,280.45,165.13Z" style="fill: rgb(250, 250, 250); transform-origin: 268.135px 162.094px;" id="elz6g4ixh9e3s" class="animable"></path><path d="M281.2,171.63c0,.16-6.08-1.19-13.49-3s-13.4-3.43-13.36-3.6,6.08,1.19,13.5,3S281.24,171.47,281.2,171.63Z" style="fill: rgb(250, 250, 250); transform-origin: 267.775px 168.329px;" id="eljrgtn572i7c" class="animable"></path><path d="M279.82,177.24c0,.16-6.08-1.19-13.5-3s-13.39-3.44-13.35-3.6,6.08,1.19,13.5,3S279.86,177.08,279.82,177.24Z" style="fill: rgb(250, 250, 250); transform-origin: 266.395px 173.94px;" id="elz9qn4hry4fq" class="animable"></path><path d="M278.44,182.86c0,.16-6.08-1.19-13.5-3s-13.39-3.44-13.35-3.6,6.08,1.19,13.5,3S278.48,182.69,278.44,182.86Z" style="fill: rgb(250, 250, 250); transform-origin: 265.015px 179.56px;" id="el0szc1xiuhoc9" class="animable"></path><path d="M277.06,188.47c0,.16-6.09-1.19-13.5-3s-13.4-3.44-13.36-3.6,6.09,1.18,13.5,3S277.1,188.31,277.06,188.47Z" style="fill: rgb(250, 250, 250); transform-origin: 263.63px 185.17px;" id="elv5ueuy5x8kl" class="animable"></path><path d="M236.93,163.46a2.71,2.71,0,0,0,3,.91c1.1-.28,2.07-.92,3.15-1.28,3.21-1.07,6.9.53,10.06-.69.44-.17.93-.52.86-1s-.56-.63-1-.74l-10.82-3" style="fill: rgb(255, 190, 157); transform-origin: 245.468px 161.085px;" id="elgqf1phou0uf" class="animable"></path><path d="M242.22,157.68a5,5,0,0,1,1.2.21c.77.17,1.87.43,3.22.78l4.75,1.24,1.37.36a2.22,2.22,0,0,1,1.48.81.93.93,0,0,1-.12,1,2,2,0,0,1-.75.53,7.42,7.42,0,0,1-1.6.43c-2.21.31-4.24-.12-6.05-.09a8.37,8.37,0,0,0-2.51.34c-.75.24-1.43.59-2.09.86a4,4,0,0,1-3.34.16c-.75-.4-.88-.9-.85-.9a3.17,3.17,0,0,0,.95.67,3.78,3.78,0,0,0,3.06-.35c.63-.28,1.3-.66,2.11-.95a8.77,8.77,0,0,1,2.66-.42c1.89-.06,3.92.34,6,0a6.7,6.7,0,0,0,1.45-.37c.43-.18.72-.51.57-.71s-.62-.38-1.09-.51l-1.36-.38-4.72-1.38c-1.34-.39-2.42-.73-3.16-1A4.18,4.18,0,0,1,242.22,157.68Z" style="fill: rgb(235, 153, 110); transform-origin: 245.63px 161.14px;" id="ely14ph7ujd" class="animable"></path><path d="M71.14,433.54l-6.38,25.31L54,477.41a2.68,2.68,0,0,0,1.12,3.75h0a2.68,2.68,0,0,0,2.45,0c4.86-2.62,22.67-12.35,23-14.23.42-2.17,8.5-26.25,8.5-26.25Z" style="fill: #14C888; transform-origin: 71.3523px 457.498px;" id="ellkmimzp091" class="animable"></path><g id="elh2h37j4lpjm"><g style="opacity: 0.6; transform-origin: 68.07px 473.307px;" class="animable" id="elnru1otw10gl"><path d="M55.07,481.16l26-16-.3,1.07a4,4,0,0,1-1.61,2.26C77,470,71.07,473.79,57.6,481.14a2.7,2.7,0,0,1-2.53,0Z" style="fill: rgb(255, 255, 255); transform-origin: 68.07px 473.307px;" id="el6xtyy89kz9n" class="animable"></path></g></g><g id="el3i5ove3ltjs"><g style="opacity: 0.6; transform-origin: 78.5559px 457.128px;" class="animable" id="elrs7smuj3jed"><path d="M78.11,455.65a1.62,1.62,0,0,0-1,1.92,1.55,1.55,0,0,0,1.89,1,1.71,1.71,0,0,0,1-2,1.62,1.62,0,0,0-2.09-.82" style="fill: rgb(255, 255, 255); transform-origin: 78.5559px 457.128px;" id="elrion3efdox" class="animable"></path></g></g><path d="M63.86,471.76a8,8,0,0,0-1.66-2.57,8.41,8.41,0,0,0-2.75-1.36c0-.06.37-.17,1-.09a4.12,4.12,0,0,1,2.15,1,4.18,4.18,0,0,1,1.26,2C64,471.37,63.93,471.75,63.86,471.76Z" style="fill: rgb(38, 50, 56); transform-origin: 61.6954px 469.736px;" id="elgs2bb8rml7" class="animable"></path><path d="M61.14,474.63c-.15.07-.73-1-1.93-1.7a22.18,22.18,0,0,0-2.37-1,3,3,0,0,1,2.67.52C60.87,473.29,61.29,474.6,61.14,474.63Z" style="fill: rgb(38, 50, 56); transform-origin: 59.0044px 473.224px;" id="el85jbdppxy8q" class="animable"></path><path d="M68.39,468.36a27.15,27.15,0,0,0-2.8-2.82,26.41,26.41,0,0,0-3.49-1.9,5.88,5.88,0,0,1,3.83,1.44A5.92,5.92,0,0,1,68.39,468.36Z" style="fill: rgb(38, 50, 56); transform-origin: 65.245px 466px;" id="elii5twp1j7pa" class="animable"></path><path d="M71,460.83c-.11.13-1.34-.83-3.13-1.4s-3.34-.53-3.35-.7a5.2,5.2,0,0,1,3.53.16A5.15,5.15,0,0,1,71,460.83Z" style="fill: rgb(38, 50, 56); transform-origin: 67.76px 459.669px;" id="ellsa1ttttzcn" class="animable"></path><path d="M73,453.45a13.08,13.08,0,0,0-3.22-1.55,12.9,12.9,0,0,0-3.56-.08c0-.06.33-.3,1-.48a5.87,5.87,0,0,1,5.1,1.22C72.87,453,73.08,453.4,73,453.45Z" style="fill: rgb(38, 50, 56); transform-origin: 69.6182px 452.319px;" id="elv2aulv1ctsh" class="animable"></path><path d="M70.25,450.51s0-.36.23-1a6.72,6.72,0,0,1,1.44-2.28,3,3,0,0,1,1.64-1,1.06,1.06,0,0,1,1.11.55,1.78,1.78,0,0,1,.08,1.24,3.77,3.77,0,0,1-4.12,2.49,4.38,4.38,0,0,1-3.54-3.35,1.48,1.48,0,0,1,.27-1.24,1,1,0,0,1,1.21-.25A3.81,3.81,0,0,1,70,447a7.79,7.79,0,0,1,1.17,2.43,2.43,2.43,0,0,1,.15,1,12.49,12.49,0,0,0-1.65-3.16,3.38,3.38,0,0,0-1.26-1.12.55.55,0,0,0-.66.13,1,1,0,0,0-.13.82,3.91,3.91,0,0,0,3.1,2.88,3.28,3.28,0,0,0,3.53-2.07,1.23,1.23,0,0,0,0-.87.58.58,0,0,0-.6-.31,2.74,2.74,0,0,0-1.41.86A10.13,10.13,0,0,0,70.25,450.51Z" style="fill: rgb(38, 50, 56); transform-origin: 70.9384px 448.058px;" id="elq1x2s5h92t" class="animable"></path><path d="M156.5,436.87l-1.41,21.26s21.16,7,21.29,11l-41.35.3.83-33.22Z" style="fill: #14C888; transform-origin: 155.705px 452.82px;" id="elt4p9904h3p" class="animable"></path><g id="eltaicxqd9sw"><g style="opacity: 0.6; transform-origin: 142.715px 457.562px;" class="animable" id="eldvhyi9bdng"><path d="M142.37,456a1.68,1.68,0,0,0-1.23,1.89,1.63,1.63,0,0,0,1.87,1.23,1.79,1.79,0,0,0,1.28-2,1.69,1.69,0,0,0-2.08-1.07" style="fill: rgb(255, 255, 255); transform-origin: 142.715px 457.562px;" id="elzmz5qn0tymm" class="animable"></path></g></g><g id="elfc0e51n164g"><g style="opacity: 0.6; transform-origin: 155.78px 467.735px;" class="animable" id="ela4ruqdauos"><path d="M135,469.41l.08-3.35,39.94,1.11a2.84,2.84,0,0,1,1.54,2.24Z" style="fill: rgb(255, 255, 255); transform-origin: 155.78px 467.735px;" id="el9bph2sk7q7l" class="animable"></path></g></g><path d="M155.77,457.94c0,.21-1,.27-2,.89s-1.57,1.45-1.75,1.36.15-1.24,1.39-2S155.82,457.76,155.77,457.94Z" style="fill: rgb(38, 50, 56); transform-origin: 153.873px 458.954px;" id="el3p9r8wq6acl" class="animable"></path><path d="M160.05,459.87c0,.19-.85.51-1.56,1.34s-.93,1.73-1.14,1.72-.29-1.16.61-2.18S160.05,459.68,160.05,459.87Z" style="fill: rgb(38, 50, 56); transform-origin: 158.632px 461.356px;" id="elao2nmkp6tz5" class="animable"></path><path d="M162.35,465.13c-.18,0-.43-1,.12-2.07s1.51-1.5,1.59-1.33-.52.75-1,1.65S162.55,465.12,162.35,465.13Z" style="fill: rgb(38, 50, 56); transform-origin: 163.101px 463.412px;" id="elguw351th9tj" class="animable"></path><path d="M155.55,453.06c-.09.18-1-.12-2.15-.08s-2,.38-2.14.2.77-.87,2.12-.9S155.65,452.91,155.55,453.06Z" style="fill: rgb(38, 50, 56); transform-origin: 153.402px 452.756px;" id="el1qlvcpha16r" class="animable"></path><g id="el54vq4cabepw"><g style="opacity: 0.3; transform-origin: 145.94px 442.76px;" class="animable" id="el07ld4tgj16a3"><polygon points="156.22 441.08 155.97 444.87 135.66 444.07 135.74 440.65 156.22 441.08" id="el901bc2jt6et" class="animable" style="transform-origin: 145.94px 442.76px;"></polygon></g></g><path d="M155.76,448.77a4,4,0,0,1-2.07-.08,8.41,8.41,0,0,1-2.15-.73,8.64,8.64,0,0,1-1.17-.66,2.46,2.46,0,0,1-.61-.51.86.86,0,0,1-.06-1.07,1.09,1.09,0,0,1,.9-.44,2.81,2.81,0,0,1,.77.13,7.72,7.72,0,0,1,1.28.48,7.86,7.86,0,0,1,1.87,1.31c.93.92,1.23,1.68,1.16,1.72s-.54-.58-1.49-1.34a8.34,8.34,0,0,0-1.82-1.1,7,7,0,0,0-1.17-.4c-.44-.13-.81-.15-.93.05s-.05.1,0,.23a2,2,0,0,0,.45.37,11.5,11.5,0,0,0,1.07.66,11.31,11.31,0,0,0,2,.82A15.13,15.13,0,0,1,155.76,448.77Z" style="fill: rgb(38, 50, 56); transform-origin: 152.651px 447.101px;" id="eltr3nehgewrs" class="animable"></path><path d="M155.48,449.05a3.32,3.32,0,0,1-.48-2,6.45,6.45,0,0,1,.35-2.25,6.78,6.78,0,0,1,.56-1.24,1.74,1.74,0,0,1,1.36-1,1,1,0,0,1,.84.6,2.78,2.78,0,0,1,.19.77,4.58,4.58,0,0,1,0,1.39,4.74,4.74,0,0,1-.95,2.11c-.84,1.05-1.69,1.27-1.7,1.2s.65-.47,1.3-1.48a4.74,4.74,0,0,0,.71-1.93,4.38,4.38,0,0,0,0-1.2c-.05-.44-.2-.8-.37-.76s-.57.31-.75.66A6.67,6.67,0,0,0,156,445a7.56,7.56,0,0,0-.47,2.05C155.4,448.26,155.59,449,155.48,449.05Z" style="fill: rgb(38, 50, 56); transform-origin: 156.671px 445.805px;" id="elzbg2shnevlp" class="animable"></path><polygon points="156.5 252.16 93.5 251.68 63.06 451.63 89.2 454.95 122.71 290.54 132.74 455.53 132.77 456.02 161.04 455.53 156.5 252.16" style="fill: rgb(38, 50, 56); transform-origin: 112.05px 353.85px;" id="elf3a8scm3tej" class="animable"></polygon><path d="M124.82,286.24a14.05,14.05,0,0,1,.16-2.44c.15-1.5.31-3.57.38-5.86s0-4.37,0-5.88a14.72,14.72,0,0,1,0-2.45,10,10,0,0,1,.39,2.43,49.49,49.49,0,0,1,.17,5.91,47.56,47.56,0,0,1-.53,5.89A10,10,0,0,1,124.82,286.24Z" style="fill: rgb(69, 90, 100); transform-origin: 125.38px 277.925px;" id="eliket92mcrr" class="animable"></path><path d="M130,270.19s.11-.12.37-.14a1.61,1.61,0,0,1,1.05.31,1.83,1.83,0,0,1,.78,1.44,1.83,1.83,0,0,1-3.18,1.08,1.8,1.8,0,0,1-.25-1.63,1.57,1.57,0,0,1,.64-.88c.22-.13.37-.13.38-.11s-.51.3-.67,1.09a1.52,1.52,0,0,0,.27,1.23,1.27,1.27,0,0,0,1.41.31,1.25,1.25,0,0,0,.92-1.1,1.51,1.51,0,0,0-.53-1.14A2.27,2.27,0,0,0,130,270.19Z" style="fill: rgb(69, 90, 100); transform-origin: 130.438px 271.764px;" id="el2j7p4lm5ljv" class="animable"></path><path d="M113.88,266.16s-.19.22-.58.53a10.66,10.66,0,0,1-1.8,1.13,14.39,14.39,0,0,1-3,1.11,16.84,16.84,0,0,1-3.83.49,16.31,16.31,0,0,1-3.84-.49,14.14,14.14,0,0,1-3-1.11,10.29,10.29,0,0,1-1.79-1.13c-.4-.31-.6-.49-.58-.52s.93.59,2.53,1.32a16.73,16.73,0,0,0,2.91,1,17.93,17.93,0,0,0,3.73.43,19.38,19.38,0,0,0,3.72-.43,16.69,16.69,0,0,0,2.91-1C112.94,266.76,113.82,266.08,113.88,266.16Z" style="fill: rgb(69, 90, 100); transform-origin: 104.669px 267.787px;" id="elhbu8o4bf9bj" class="animable"></path><path d="M152.87,270.4a4.33,4.33,0,0,1-1.72.36,12.26,12.26,0,0,1-8.08-2.31c-.88-.65-1.31-1.17-1.27-1.22a21.18,21.18,0,0,0,5.25,2.59A21.88,21.88,0,0,0,152.87,270.4Z" style="fill: rgb(69, 90, 100); transform-origin: 147.334px 269.011px;" id="elk2eabu90zb" class="animable"></path><path d="M73,453.45a1.92,1.92,0,0,0,.18-.43q.15-.43.36-1.32c.28-1.17.65-2.91,1.11-5.16.9-4.49,2.12-11,3.59-19.07,2.93-16.13,6.85-38.43,11.16-63.06s8.26-46.92,11.1-63.09c1.46-8,2.64-14.56,3.46-19.1.42-2.23.74-4,1-5.19.11-.57.2-1,.27-1.34s.11-.46.11-.46,0,.16-.06.47-.12.78-.22,1.35c-.2,1.22-.5,3-.87,5.21-.78,4.54-1.91,11.07-3.29,19.13-2.81,16.17-6.68,38.47-11,63.11s-8.29,46.93-11.32,63c-1.51,8-2.79,14.56-3.76,19S73.22,453.53,73,453.45Z" style="fill: rgb(69, 90, 100); transform-origin: 89.17px 364.341px;" id="ellx5cluxknma" class="animable"></path><path d="M153.32,451.19a3.92,3.92,0,0,1,0-.46c0-.33,0-.77,0-1.35,0-1.22,0-3-.05-5.2s0-5-.08-8.24-.08-6.86-.19-10.9c-.16-8.08-.47-17.69-.93-28.36s-1.17-22.4-2.08-34.69-2-24-3.12-34.61-2.26-20.18-3.31-28.19c-.5-4-1-7.63-1.45-10.81s-.81-5.92-1.14-8.15-.56-4-.73-5.15c-.07-.57-.13-1-.17-1.34s-.05-.46-.05-.46,0,.15.1.45.13.76.23,1.33c.19,1.2.47,2.93.82,5.14s.78,5,1.23,8.14,1,6.79,1.52,10.8c1.1,8,2.27,17.56,3.43,28.18s2.23,22.33,3.16,34.63,1.57,24,2,34.71.71,20.29.82,28.37c.08,4,.08,7.7.11,10.91s0,6,0,8.24,0,4,0,5.2c0,.58,0,1,0,1.35S153.32,451.19,153.32,451.19Z" style="fill: rgb(69, 90, 100); transform-origin: 146.737px 362.235px;" id="elj5jjg3marwq" class="animable"></path><path d="M158.11,226.19c0-.24,0-.51,0-.8Z" style="fill: #14C888; transform-origin: 158.11px 225.79px;" id="el4ze9v7o6scd" class="animable"></path><path d="M154.47,146.3c-.77-.65-13.8-2.31-13.8-2.31-6.84-.2-17.17-1.56-24.55-.77h0a234.37,234.37,0,0,0-23.25,9.65,19.42,19.42,0,0,0-8.14,12.41L96,228.49v0L91.25,257c-.74,6.48,23.36,9.38,37.75,10.53A38,38,0,0,0,148.27,264l10.15-4.81a.14.14,0,0,0,.16-.15l-.47-32.86,5.95-62.88C164.86,157.72,158.8,149.94,154.47,146.3Z" style="fill: #14C888; transform-origin: 124.431px 205.313px;" id="el8xasd9ppgjx" class="animable"></path><path d="M141.51,145.72s13.41-.73,20.14,2.57S198.06,172,198.06,172l30.42-11.27,10.76,14.59-26.35,19.2a22.35,22.35,0,0,1-21.37,2L157.39,183Z" style="fill: #14C888; transform-origin: 190.375px 172.001px;" id="el32vww6aknks" class="animable"></path><path d="M162.89,171.84c.18,0-.66,10-1.88,22.28s-2.34,22.22-2.52,22.2.66-10,1.88-22.27S162.72,171.83,162.89,171.84Z" style="fill: rgb(38, 50, 56); transform-origin: 160.69px 194.08px;" id="elb07immgynh" class="animable"></path><g id="elfzv7zt3i1b6"><g style="opacity: 0.3; transform-origin: 124.92px 244.597px;" class="animable" id="elpdql8h1k3uq"><path d="M93.68,243.41l-1,5.18c7.29.9,14,1.51,21.33,2.41l29.92,3.68c2.34.29,4.85.55,7-.52,3.22-1.65,4.26-5.73,4.44-9.34s-.07-7.47,1.79-10.56C135.49,236.75,115.11,239.66,93.68,243.41Z" id="el2i3zycifizc" class="animable" style="transform-origin: 124.92px 244.597px;"></path></g></g><g id="elmyf8k4a4wm"><g style="opacity: 0.3; transform-origin: 111.445px 201.91px;" class="animable" id="ellq7dlwc9zk"><path d="M105.68,218.56a222.3,222.3,0,0,1,11.53-34.91,236.79,236.79,0,0,1-6.6,36.52" id="el16gpm7i2tfa" class="animable" style="transform-origin: 111.445px 201.91px;"></path></g></g><path d="M104.92,169.57a22.06,22.06,0,0,0-4.11-6.09,22.1,22.1,0,0,0-6.15-4,5.8,5.8,0,0,1,2.11.64,14.79,14.79,0,0,1,4.41,3,15.06,15.06,0,0,1,3.07,4.36A6,6,0,0,1,104.92,169.57Z" style="fill: rgb(38, 50, 56); transform-origin: 99.79px 164.525px;" id="elyovxt27e2pj" class="animable"></path><path d="M163,161.16a27.36,27.36,0,0,1-.82-5.24,27.06,27.06,0,0,1-.31-5.31,27.75,27.75,0,0,1,.82,5.25A27,27,0,0,1,163,161.16Z" style="fill: rgb(38, 50, 56); transform-origin: 162.435px 155.885px;" id="elby4cni1zfk" class="animable"></path><path d="M199.82,186.35a7.06,7.06,0,0,1-1-1.94,19.8,19.8,0,0,1-1.28-5.13,19.3,19.3,0,0,1,.15-5.29,6.42,6.42,0,0,1,.58-2.11,36.11,36.11,0,0,0-.21,7.34A37.48,37.48,0,0,0,199.82,186.35Z" style="fill: rgb(38, 50, 56); transform-origin: 198.623px 179.115px;" id="el0hg6mroc8wl" class="animable"></path><g id="el8jz324ickgq"><g style="opacity: 0.3; transform-origin: 198.343px 180.709px;" class="animable" id="el7lapwp1mean"><path d="M198,172.21c-1.26,1.1-1.53,2.92-1.63,4.59a45.37,45.37,0,0,0,.19,7.46,9.82,9.82,0,0,0,1.06,3.92,1.87,1.87,0,0,0,1.1,1c.87.2,1.65-.74,1.67-1.63a5.4,5.4,0,0,0-.84-2.5A18.42,18.42,0,0,1,198,173" id="elcdtwriy7kjb" class="animable" style="transform-origin: 198.343px 180.709px;"></path></g></g><path d="M155.33,147.58a6.07,6.07,0,0,1-.06.7c-.05.46-.11,1.14-.25,2a59,59,0,0,1-1.63,7.38,63,63,0,0,1-11.85,22.6l-.12.15-.17-.08c-2.49-1.09-5.06-2.25-7.63-3.54A151.27,151.27,0,0,1,107.2,160c-3.15-2.49-5.57-4.65-7.24-6.15l-1.88-1.77-.48-.47a1.14,1.14,0,0,1-.15-.18,1,1,0,0,1,.19.14l.51.43c.48.42,1.13,1,1.94,1.7,1.71,1.45,4.17,3.56,7.33,6a159.32,159.32,0,0,0,26.43,16.6c2.56,1.29,5.13,2.45,7.6,3.54l-.3.07a64.4,64.4,0,0,0,11.92-22.36,69,69,0,0,0,1.77-7.31c.17-.87.25-1.55.34-2A3.24,3.24,0,0,1,155.33,147.58Z" style="fill: rgb(250, 250, 250); transform-origin: 126.39px 163.995px;" id="ellc8d4xwjphj" class="animable"></path><path d="M150.62,147.06a4,4,0,0,1-.11.56c-.1.36-.22.9-.42,1.58-.38,1.37-1,3.35-1.86,5.78a97.74,97.74,0,0,1-8.93,18.48l-.14.23-.22-.15-4.77-3.27-20.12-13.9L108,152.11l-1.63-1.18a3,3,0,0,1-.55-.44,4.16,4.16,0,0,1,.61.36l1.69,1.1,6.15,4.12,20.2,13.77,4.77,3.28-.37.07a104.93,104.93,0,0,0,9.06-18.33c.9-2.4,1.56-4.36,2-5.71l.5-1.55A2.32,2.32,0,0,1,150.62,147.06Z" style="fill: rgb(250, 250, 250); transform-origin: 128.22px 160.375px;" id="el10u6sz8lcks" class="animable"></path><path d="M224.44,185.33a2.41,2.41,0,0,1-.8-.37,10.82,10.82,0,0,1-1.91-1.43,17.1,17.1,0,0,1-4.24-6.59,33.75,33.75,0,0,1-1.7-7.64,17.4,17.4,0,0,1-.23-3.23,21,21,0,0,1,.6,3.17,40.8,40.8,0,0,0,1.82,7.52,18.37,18.37,0,0,0,4,6.51C223.38,184.67,224.49,185.25,224.44,185.33Z" style="fill: rgb(250, 250, 250); transform-origin: 219.999px 175.7px;" id="eltbdh0nffs7a" class="animable"></path><path d="M229.7,182.49a2.81,2.81,0,0,1-.6-.57c-.37-.39-.87-1-1.46-1.73a40.55,40.55,0,0,1-4-6.3,39,39,0,0,1-2.76-6.93c-.27-.91-.45-1.66-.55-2.19a2.21,2.21,0,0,1-.11-.82,29,29,0,0,1,1,2.9,52.68,52.68,0,0,0,2.87,6.8,54.35,54.35,0,0,0,3.83,6.32A24.05,24.05,0,0,1,229.7,182.49Z" style="fill: rgb(250, 250, 250); transform-origin: 224.958px 173.22px;" id="eljot0svuidu" class="animable"></path><path d="M158.7,254a4,4,0,0,1-.6.36l-1.77.93L155,256c-.47.23-1,.44-1.57.69-1.14.48-2.42,1.09-3.9,1.57l-2.31.81c-.8.28-1.66.48-2.54.74-1.75.54-3.68.91-5.69,1.34a74.63,74.63,0,0,1-13.33,1.2,75.65,75.65,0,0,1-13.32-1.39c-2-.46-3.93-.85-5.67-1.42-.88-.27-1.74-.49-2.54-.78l-2.29-.84c-1.48-.5-2.74-1.13-3.87-1.62-.57-.26-1.1-.48-1.57-.72l-1.28-.68-1.75-1a4,4,0,0,1-.6-.36,3.44,3.44,0,0,1,.65.27l1.79.88,1.3.64c.48.22,1,.43,1.57.67,1.14.47,2.41,1.07,3.89,1.54l2.29.81c.8.28,1.65.49,2.53.74,1.73.55,3.65.93,5.64,1.37a77.8,77.8,0,0,0,13.23,1.34,78.75,78.75,0,0,0,13.24-1.15c2-.42,3.92-.76,5.67-1.29.87-.24,1.73-.44,2.53-.7l2.31-.78c1.48-.45,2.76-1,3.9-1.49.57-.23,1.11-.43,1.59-.65l1.3-.62,1.81-.85A2.91,2.91,0,0,1,158.7,254Z" style="fill: rgb(250, 250, 250); transform-origin: 125.735px 257.945px;" id="el873xul7unu8" class="animable"></path><path d="M148.29,250.15l-41.16-10.23a3.73,3.73,0,0,1-2.72-4.52l13.79-55.46a3.72,3.72,0,0,1,4.52-2.72l28.78,7.16,12.12,19.55-10.81,43.5A3.73,3.73,0,0,1,148.29,250.15Z" style="fill: rgb(69, 90, 100); transform-origin: 133.96px 213.684px;" id="ell78lvgatw2l" class="animable"></path><path d="M151.53,184.24l-2.74,11a5.07,5.07,0,0,0,3.71,6.16l11.12,2.51Z" style="fill: rgb(38, 50, 56); transform-origin: 156.129px 194.075px;" id="el4tzw8xjex77" class="animable"></path><path d="M144.83,237.66s0-.19.11-.53.19-.85.34-1.47l1.31-5.52c1.15-4.75,2.78-11.48,4.74-19.55l.16.28-28.08-6.94.32-.19h0v0l0,.06,0,.11,0,.23-.12.46-.23.92c-.15.62-.3,1.22-.45,1.83-.3,1.21-.6,2.42-.9,3.61q-.89,3.57-1.74,7c-1.14,4.53-2.21,8.81-3.2,12.76l-.17-.29,20.25,5.16,5.72,1.48,1.52.41.53.16a3,3,0,0,1-.49-.1l-1.49-.34-5.7-1.35-20.45-5-.23-.06.06-.23c1-3.94,2-8.23,3.14-12.76.57-2.27,1.14-4.6,1.73-7,.3-1.19.6-2.4.9-3.61l.45-1.83.23-.92.12-.46.05-.23,0-.11,0-.06v0h0l.33-.2,28.07,7,.22.06-.06.23c-2.06,8.1-3.78,14.85-5,19.63-.6,2.31-1.08,4.15-1.41,5.44-.16.59-.29,1.06-.38,1.42A2.5,2.5,0,0,1,144.83,237.66Z" style="fill: rgb(255, 255, 255); transform-origin: 134.23px 220.52px;" id="eleej8x6fu6xe" class="animable"></path><path d="M130.45,234.42c-.15,0,1.24-6.11,3.09-13.57s3.48-13.47,3.62-13.44-1.24,6.11-3.09,13.57S130.59,234.46,130.45,234.42Z" style="fill: rgb(255, 255, 255); transform-origin: 133.804px 220.915px;" id="elw4qykt1235" class="animable"></path><path d="M146.37,231c0,.15-6.37-1.3-14.15-3.24s-14.07-3.62-14-3.77,6.37,1.31,14.16,3.25S146.41,230.87,146.37,231Z" style="fill: rgb(255, 255, 255); transform-origin: 132.295px 227.495px;" id="elmnibohbzw7" class="animable"></path><path d="M148.41,224.21c0,.14-6.38-1.31-14.16-3.25s-14.07-3.62-14-3.76,6.37,1.31,14.16,3.24S148.44,224.06,148.41,224.21Z" style="fill: rgb(255, 255, 255); transform-origin: 134.33px 220.705px;" id="elogoe3cnu3l" class="animable"></path><path d="M149.9,217.27c0,.14-6.32-1.3-14.05-3.22s-13.95-3.59-13.92-3.74,6.33,1.3,14,3.22S149.94,217.12,149.9,217.27Z" style="fill: rgb(255, 255, 255); transform-origin: 135.915px 213.789px;" id="elqecfhmy1ub" class="animable"></path><path d="M127.7,225.07l7-.77s2.9-4.81,4.8-6.49,11.74-6.38,11.74-6.38a2.71,2.71,0,0,1,0,3.45c-.65.78-5.3,3.39-5.3,3.39h0a2.69,2.69,0,0,0,3.06,3.39c2.88-.53,6.24-1.13,6.68-1.13s3.37-2.72,5.48-4.78a1.79,1.79,0,0,1,3,1.64.85.85,0,0,1-.25.42s3-.1.33,4c0,0,.62,3.76-1.6,5.49,0,0-1,4.55-2.39,6.12S144.94,238,144.94,238l-20,2.42Z" style="fill: rgb(255, 190, 157); transform-origin: 145.143px 225.925px;" id="el1rzkyd9re93" class="animable"></path><path d="M150.29,226a8.84,8.84,0,0,0,2.5.06,13,13,0,0,0,5.86-1.54,12.3,12.3,0,0,0,4.09-4.49,8.27,8.27,0,0,0,1.06-2.26,12.38,12.38,0,0,0-1.45,2,13.41,13.41,0,0,1-4,4.17,14.81,14.81,0,0,1-5.58,1.64A10.45,10.45,0,0,0,150.29,226Z" style="fill: rgb(235, 153, 110); transform-origin: 157.045px 221.946px;" id="eltc877648d5l" class="animable"></path><path d="M151.73,229.21a4.75,4.75,0,0,0,2.28.18,17.61,17.61,0,0,0,2.46-.36,7.78,7.78,0,0,0,2.87-1.17,13.72,13.72,0,0,0,2.14-2.2l1.53-1.91a7.72,7.72,0,0,0,1.3-1.87,8.34,8.34,0,0,0-1.64,1.57c-.48.51-1,1.13-1.64,1.83a15,15,0,0,1-2.08,2.06,7.66,7.66,0,0,1-2.63,1.11,21.52,21.52,0,0,1-2.36.48C152.59,229.15,151.74,229.12,151.73,229.21Z" style="fill: rgb(235, 153, 110); transform-origin: 158.02px 225.667px;" id="el4tckzl5x4tc" class="animable"></path><path d="M153.69,232.8c0,.26,2.53-.27,5.48-1.09a2.6,2.6,0,0,0,1.08-.65c.28-.26.53-.52.76-.77a11.28,11.28,0,0,0,1.08-1.46c.54-.89.69-1.53.61-1.55s-.38.51-1,1.29a13.4,13.4,0,0,1-1.14,1.31,8.1,8.1,0,0,1-.73.7,2.06,2.06,0,0,1-.83.51c-1.5.4-2.82.82-3.78,1.13A7.29,7.29,0,0,0,153.69,232.8Z" style="fill: rgb(235, 153, 110); transform-origin: 158.205px 230.073px;" id="elh1dcw2sgjuq" class="animable"></path><path d="M99.19,216.46l6.39-34.55v0c.07-.56-3.74-15.68-20.68-17.37l-7.64,26c-2,8.19-5,19.62-6.27,34.52-.81,9.26,8.09,17.81,18.49,19.25l.42.06c17.8,2.18,35-.67,37.31-1.29l2.5-18.89C129.92,224.26,99.19,216.46,99.19,216.46Z" style="fill: #14C888; transform-origin: 100.325px 204.859px;" id="el0onmik7t7ete" class="animable"></path><path d="M82.48,220a1.28,1.28,0,0,1,0-.43,7.25,7.25,0,0,1,.34-1.19,9.85,9.85,0,0,1,2.54-3.83,9.68,9.68,0,0,1,6.4-2.68,10.34,10.34,0,0,1,8,3.41l-.44.13c.31-2.07.64-4.26,1-6.5,1.21-7.75,2.31-14.76,3.12-19.92.41-2.5.75-4.54,1-6,.12-.67.22-1.21.3-1.64a2.08,2.08,0,0,1,.14-.56,3.6,3.6,0,0,1,0,.58c0,.43-.12,1-.2,1.65-.21,1.5-.49,3.55-.84,6.05-.77,5.17-1.81,12.19-3,19.94l-1,6.51-.08.54-.36-.41a10,10,0,0,0-7.57-3.32,9.49,9.49,0,0,0-6.19,2.49,10.31,10.31,0,0,0-2.6,3.66C82.62,219.39,82.52,220,82.48,220Z" style="fill: rgb(38, 50, 56); transform-origin: 93.6768px 200.395px;" id="elucmuo1z73o" class="animable"></path><path d="M99.75,216a4.16,4.16,0,0,1,.56.15l1.63.5c1.41.44,3.49,1.07,6.12,1.82,5.27,1.49,12.8,3.41,21.71,5.46l.21.05,0,.21c-.69,5.83-1.46,12.24-2.27,19l0,.2-.2,0-1.25.19a169.41,169.41,0,0,1-20,1.74,85,85,0,0,1-16.35-.73,24.76,24.76,0,0,1-10.26-4,14.66,14.66,0,0,1-1.36-1.09,10.1,10.1,0,0,1-.92-.88l-.52-.58c-.12-.13-.17-.2-.16-.21l.2.18.56.54a9.58,9.58,0,0,0,.94.83,12.66,12.66,0,0,0,1.38,1A25,25,0,0,0,90,244.23c4.58.78,10.13.78,16.28.61a175.56,175.56,0,0,0,19.91-1.78l1.24-.19-.21.23,2.31-19,.18.26c-8.91-2.08-16.43-4.07-21.68-5.64-2.63-.79-4.69-1.46-6.09-2-.71-.24-1.24-.44-1.6-.57A3.4,3.4,0,0,1,99.75,216Z" style="fill: rgb(38, 50, 56); transform-origin: 103.334px 230.717px;" id="elikx91wewnmn" class="animable"></path><g id="el76pq8v98nhh"><g style="opacity: 0.3; transform-origin: 94.3448px 220.923px;" class="animable" id="eleizdtcnucuo"><path d="M99.62,215.19a4.91,4.91,0,0,0-4.3.41,11.82,11.82,0,0,0-6.08,7.74,4.44,4.44,0,0,0-.08,2.11,2,2,0,0,0,1.37,1.5,2.19,2.19,0,0,0,2.21-1.08,8.72,8.72,0,0,0,.92-2.45,15,15,0,0,1,5.91-8" id="el5scooeu53gg" class="animable" style="transform-origin: 94.3448px 220.923px;"></path></g></g><path d="M112,244.17a3.4,3.4,0,0,1-.32-.91,23.12,23.12,0,0,1-.56-2.54,32,32,0,0,1,1.76-17,22.13,22.13,0,0,1,1.07-2.38,3.43,3.43,0,0,1,.5-.82c.08,0-.51,1.26-1.23,3.32a36.61,36.61,0,0,0-1.74,16.78C111.75,242.83,112.08,244.15,112,244.17Z" style="fill: rgb(250, 250, 250); transform-origin: 112.566px 232.345px;" id="elarbbezcr08t" class="animable"></path><path d="M118.88,244.28s-.37,0-.77-.53a4.62,4.62,0,0,1-.73-2.45,49.18,49.18,0,0,1,0-8.31,47.78,47.78,0,0,1,1.35-8.2c.27-1,.52-1.85.71-2.41a2.94,2.94,0,0,1,.36-.86c.07,0-.27,1.29-.71,3.36a63.24,63.24,0,0,0-1.31,16.4,4.68,4.68,0,0,0,.53,2.35C118.58,244.12,118.91,244.24,118.88,244.28Z" style="fill: rgb(250, 250, 250); transform-origin: 118.507px 232.9px;" id="elfivi4s3qsx6" class="animable"></path><path d="M114.82,105.32l1.36,39.56a12.23,12.23,0,0,0,12.63,11.81h0a12.24,12.24,0,0,0,11.84-11.89c.1-3.54.17-6.5.17-6.5s9.85-1.05,10.43-10.82c.28-4.71.08-14.45-.22-23.27A18.31,18.31,0,0,0,132.72,86.5h0A18.12,18.12,0,0,0,114.82,105.32Z" style="fill: rgb(255, 190, 157); transform-origin: 133.095px 121.598px;" id="elfgyv72zr7n" class="animable"></path><path d="M140.83,138.33a22.73,22.73,0,0,1-12.57-4.23s2.68,7.18,12.47,6.76Z" style="fill: rgb(235, 153, 110); transform-origin: 134.545px 137.489px;" id="eld00cz470sb8" class="animable"></path><path d="M147.82,111a1.39,1.39,0,0,1-1.41,1.34A1.33,1.33,0,0,1,145,111a1.4,1.4,0,0,1,1.41-1.35A1.34,1.34,0,0,1,147.82,111Z" style="fill: rgb(38, 50, 56); transform-origin: 146.41px 110.995px;" id="el57lt1ovzk6" class="animable"></path><path d="M148.69,109c-.18.17-1.2-.66-2.7-.73s-2.64.63-2.8.44.12-.41.62-.73a3.76,3.76,0,0,1,2.24-.58,3.61,3.61,0,0,1,2.14.81C148.64,108.59,148.78,108.93,148.69,109Z" style="fill: rgb(38, 50, 56); transform-origin: 145.93px 108.208px;" id="eljt0htoe6t2l" class="animable"></path><path d="M133.59,111a1.41,1.41,0,0,1-1.42,1.35,1.34,1.34,0,0,1-1.38-1.33,1.4,1.4,0,0,1,1.41-1.35A1.35,1.35,0,0,1,133.59,111Z" style="fill: rgb(38, 50, 56); transform-origin: 132.19px 111.01px;" id="eln927d69uffe" class="animable"></path><path d="M133.91,108.59c-.18.17-1.2-.66-2.7-.73s-2.64.63-2.8.44.12-.4.61-.73a3.82,3.82,0,0,1,2.25-.58,3.61,3.61,0,0,1,2.14.81C133.86,108.17,134,108.51,133.91,108.59Z" style="fill: rgb(38, 50, 56); transform-origin: 131.15px 107.798px;" id="elpfoxezzcms" class="animable"></path><path d="M138.84,120a9.27,9.27,0,0,1,2.46-.33c.38,0,.75-.08.83-.34a2,2,0,0,0-.21-1.15q-.46-1.41-1-3c-1.38-4.23-2.36-7.71-2.19-7.76s1.43,3.33,2.81,7.56l.94,3a2.17,2.17,0,0,1,.13,1.52,1,1,0,0,1-.65.53,2.69,2.69,0,0,1-.66.06A10.19,10.19,0,0,1,138.84,120Z" style="fill: rgb(38, 50, 56); transform-origin: 140.701px 113.773px;" id="eldpi825ycp8b" class="animable"></path><path d="M134.37,120.82c.24,0,.17,1.63,1.51,2.85S139,124.8,139,125s-.4.3-1.13.29a4.06,4.06,0,0,1-2.58-1,3.58,3.58,0,0,1-1.17-2.39C134.05,121.2,134.25,120.8,134.37,120.82Z" style="fill: rgb(38, 50, 56); transform-origin: 136.553px 123.055px;" id="el4ynexiuele8" class="animable"></path><path d="M134.58,102.72c-.17.4-1.66.14-3.43.26s-3.23.55-3.44.17c-.1-.18.17-.55.76-.92a5.75,5.75,0,0,1,2.58-.77,5.65,5.65,0,0,1,2.65.44C134.34,102.19,134.65,102.53,134.58,102.72Z" style="fill: rgb(38, 50, 56); transform-origin: 131.14px 102.374px;" id="eli2yt375ewf" class="animable"></path><path d="M148.34,104.63c-.28.33-1.29-.07-2.54-.15s-2.31.12-2.53-.25c-.1-.17.08-.51.56-.81a3.49,3.49,0,0,1,2.09-.46,3.54,3.54,0,0,1,2,.78C148.34,104.11,148.47,104.47,148.34,104.63Z" style="fill: rgb(38, 50, 56); transform-origin: 145.816px 103.851px;" id="elc4kixt3anqr" class="animable"></path><path d="M125.93,95.26l-.05,0a7.72,7.72,0,0,0-3.1,4.84l0,.2c-.52,2.77-.58,5.61-1.12,8.37a12.73,12.73,0,0,1-3.79,7.38c-.89.75-2.41,1.22-3.06.26a2.3,2.3,0,0,1-.29-1.29c-.2-6.76-1.76-12.82-1.42-19.86a6,6,0,0,1,2.7-4.72c1.52-1,3.37-2,5-1.14s3.58,4,4.79,5.38" style="fill: rgb(38, 50, 56); transform-origin: 119.491px 102.911px;" id="elkyfq18ph3l" class="animable"></path><path d="M117.9,110.06c-.17-.08-6.63-2.3-6.73,4.39s6.64,5.42,6.65,5.22S117.9,110.06,117.9,110.06Z" style="fill: rgb(255, 190, 157); transform-origin: 114.534px 114.77px;" id="elaq9f4drbk5d" class="animable"></path><path d="M115.82,117.11s-.12.08-.32.16a1.16,1.16,0,0,1-.87,0,2.88,2.88,0,0,1-1.29-2.61,3.76,3.76,0,0,1,.35-1.67,1.35,1.35,0,0,1,.89-.88.6.6,0,0,1,.68.33c.09.19,0,.32.08.34s.14-.11.09-.39a.73.73,0,0,0-.25-.42.83.83,0,0,0-.64-.18,1.62,1.62,0,0,0-1.24,1,3.94,3.94,0,0,0-.43,1.85,3,3,0,0,0,1.65,2.92,1.23,1.23,0,0,0,1.07-.16C115.8,117.27,115.84,117.12,115.82,117.11Z" style="fill: rgb(235, 153, 110); transform-origin: 114.343px 114.7px;" id="elmezwv6fhst" class="animable"></path><path d="M119.73,91.39c-1.92-2.48,2.15-6.79,5.32-8.19s7.67-.26,11,.47c2.14.45,4.3,1.18,6.46.86a14.77,14.77,0,0,0,4.1-1.54,10.92,10.92,0,0,1,4.16-1.3,4,4,0,0,1,3.74,1.84,2.53,2.53,0,0,1-1.31,3.58,3.28,3.28,0,1,1,1.53,6c.87-.82,2.45.21,2.46,1.4a3.46,3.46,0,0,1-2,2.77c-2.64,1.52-5.91,1.48-8.89.83s-5.81-1.87-8.76-2.59-7.94-2.07-10.68-.75c-2,1-3.21,3.66-4.46,3.23A4.06,4.06,0,0,1,120,95.19a11.79,11.79,0,0,1-.29-3.8" style="fill: rgb(38, 50, 56); transform-origin: 138.765px 90.105px;" id="elthecvmx0lom" class="animable"></path><path d="M152.9,87.59s.12.06.33.21a2,2,0,0,1,.69.87,2.86,2.86,0,0,1-1.2,3.55A5.47,5.47,0,0,1,150,93a10.79,10.79,0,0,1-3.25-.47,33.12,33.12,0,0,1-6.82-3.33,19.55,19.55,0,0,0-7.12-2.76,9,9,0,0,0-3.35.2,8.39,8.39,0,0,0-2.64,1.25A8.49,8.49,0,0,0,124.09,91a5.67,5.67,0,0,0-.51,1.45s.16-.53.61-1.4A8.66,8.66,0,0,1,126.94,88a7.91,7.91,0,0,1,2.59-1.18,8.77,8.77,0,0,1,3.26-.18,19.68,19.68,0,0,1,7,2.75,31.63,31.63,0,0,0,6.88,3.33,10.59,10.59,0,0,0,3.32.46,5.68,5.68,0,0,0,2.82-.8,3.8,3.8,0,0,0,.93-.9,2.72,2.72,0,0,0,.45-1.06,2.92,2.92,0,0,0-.2-1.81,2,2,0,0,0-.75-.87A1.36,1.36,0,0,0,152.9,87.59Z" style="fill: rgb(69, 90, 100); transform-origin: 138.916px 89.7744px;" id="elog8487iqjzq" class="animable"></path><path d="M129.24,84.21s-.15,0-.43,0a4.94,4.94,0,0,0-1.16.21,6.52,6.52,0,0,0-4.74,5.68,5,5,0,0,0,0,1.18,1.07,1.07,0,0,0,.09.43s0-.62.1-1.59a6.74,6.74,0,0,1,4.6-5.52C128.63,84.28,129.25,84.26,129.24,84.21Z" style="fill: rgb(69, 90, 100); transform-origin: 126.058px 87.96px;" id="elirz435m9r7" class="animable"></path><path d="M113.21,101.36a1.24,1.24,0,0,0,.55.15,2.63,2.63,0,0,0,1.51-.33,3.71,3.71,0,0,0,1.59-1.64,10.72,10.72,0,0,0,.92-2.63,10.71,10.71,0,0,1,.9-2.58,3.67,3.67,0,0,1,1.49-1.55,2.74,2.74,0,0,1,1.42-.36c.35,0,.54.09.55.07a1.14,1.14,0,0,0-.54-.17,2.65,2.65,0,0,0-1.52.28,3.75,3.75,0,0,0-1.63,1.61,11.17,11.17,0,0,0-.94,2.63,11.65,11.65,0,0,1-.87,2.58,3.69,3.69,0,0,1-1.47,1.59,2.58,2.58,0,0,1-1.41.39C113.41,101.4,113.22,101.33,113.21,101.36Z" style="fill: rgb(69, 90, 100); transform-origin: 117.675px 96.911px;" id="elcdyzksgwxg7" class="animable"></path><path d="M113.56,105.78s.06,0,.17,0a3.42,3.42,0,0,0,.48.06,6,6,0,0,0,1.78-.14,8.07,8.07,0,0,0,4.79-3.29,12,12,0,0,0,2-5.51,4.94,4.94,0,0,1,.15-1,1.13,1.13,0,0,1,.39-.6,1,1,0,0,1,.57-.22.69.69,0,0,0-.64.13,1.31,1.31,0,0,0-.47.64,4.78,4.78,0,0,0-.2,1,12.49,12.49,0,0,1-2,5.38,8.14,8.14,0,0,1-4.6,3.26A8.66,8.66,0,0,1,113.56,105.78Z" style="fill: rgb(69, 90, 100); transform-origin: 118.725px 100.453px;" id="el7qus6yxb5e4" class="animable"></path></g><g id="freepik--Box--inject-2" class="animable" style="transform-origin: 300.023px 311.385px;"><path d="M300.37,328.18c-.14,0-.26-7.31-.26-16.33s.12-16.34.26-16.34.26,7.32.26,16.34S300.51,328.18,300.37,328.18Z" style="fill: rgb(38, 50, 56); transform-origin: 300.37px 311.845px;" id="elo4t1igxpau" class="animable"></path><path d="M305,331.62c-.15,0-.26-6.58-.26-14.69s.11-14.7.26-14.7.26,6.58.26,14.7S305.12,331.62,305,331.62Z" style="fill: rgb(38, 50, 56); transform-origin: 305px 316.925px;" id="elzncslcb2szk" class="animable"></path><path d="M330.33,255.52c-.14,0-.26-6.64-.26-14.83s.12-14.83.26-14.83.26,6.64.26,14.83S330.48,255.52,330.33,255.52Z" style="fill: rgb(38, 50, 56); transform-origin: 330.33px 240.69px;" id="elqt5ns2avg7" class="animable"></path><path d="M334.65,241.5c-.15,0-.26-4.95-.26-11.06s.11-11.05.26-11.05.26,4.94.26,11.05S334.79,241.5,334.65,241.5Z" style="fill: rgb(38, 50, 56); transform-origin: 334.65px 230.445px;" id="elwtjp17zwq7l" class="animable"></path><path d="M357.29,329.21l-31.15-18.6a4.54,4.54,0,0,1-1.57-6.22l25.74-43.11a4.53,4.53,0,0,1,6.22-1.57l19.76,11.79,5.88,24.89-18.66,31.25A4.53,4.53,0,0,1,357.29,329.21Z" style="fill: #14C888; transform-origin: 353.05px 294.46px;" id="elj6bhu0wt5dk" class="animable"></path><path d="M361.84,303.81s.26.15.8.33a4.16,4.16,0,0,0,4-.77,4.45,4.45,0,0,0,.69-.74c.19-.28.38-.61.57-.94l2.66-4.5c.49-.84,1-1.71,1.55-2.62l.82-1.39a7.5,7.5,0,0,0,.74-1.47,4.69,4.69,0,0,0-.17-3.33,4.8,4.8,0,0,0-1-1.45,8,8,0,0,0-1.52-1.05l-14.31-8.5a4.43,4.43,0,0,0-4,.12,4.21,4.21,0,0,0-1.52,1.35c-.38.57-.73,1.2-1.09,1.79l-4.13,6.9c-.32.54-.69,1.09-.94,1.62a4.19,4.19,0,0,0,.9,4.76,6.71,6.71,0,0,0,1.34.94l1.38.84,2.61,1.57L359,302l2.12,1.31c.22.15.4.26.55.35l.18.13s-.08,0-.2-.1l-.57-.31-2.16-1.25L351,297.5,348.38,296l-1.39-.82a7.1,7.1,0,0,1-1.4-1,4.54,4.54,0,0,1-1.4-3.27,4.48,4.48,0,0,1,.4-1.86c.29-.6.64-1.1,1-1.66,1.31-2.21,2.68-4.52,4.11-6.91.36-.6.69-1.2,1.1-1.82a4.73,4.73,0,0,1,1.64-1.47,4.88,4.88,0,0,1,4.39-.13c5.13,3,9.92,5.92,14.33,8.54a7.82,7.82,0,0,1,1.58,1.12,4.91,4.91,0,0,1,1.08,1.56,5,5,0,0,1,.16,3.56,7.76,7.76,0,0,1-.78,1.52c-.28.48-.56.94-.83,1.39l-1.57,2.6-2.7,4.48c-.2.33-.39.65-.6.95a4.82,4.82,0,0,1-.73.76,4.47,4.47,0,0,1-1.63.82,4.25,4.25,0,0,1-2.49-.12A3,3,0,0,1,361.84,303.81Z" style="fill: rgb(250, 250, 250); transform-origin: 359.211px 290.546px;" id="ely0hz75ihwbp" class="animable"></path><path d="M366.55,303.86a2.09,2.09,0,0,1-.09-.37c0-.29-.1-.64-.17-1.06l-.56-3.93c-.11-.83-.23-1.74-.37-2.71-.06-.49-.13-1-.2-1.51,0-.26-.07-.52-.1-.79a1.3,1.3,0,0,0-1.68-1l-1.64.64-3.48,1.35-1.56.6-.19.08-.06-.21c-.3-1.14-.6-2.25-.89-3.32l-.21-.79a2,2,0,0,0-.26-.69,1.36,1.36,0,0,0-1.17-.61,2.57,2.57,0,0,0-.69.14l-.71.19-1.34.35-2.39.64-3.46.89-.94.22c-.22.05-.33.07-.34.05a1.72,1.72,0,0,1,.32-.12l.92-.29,3.43-1,2.38-.68,1.34-.38.7-.19a3.25,3.25,0,0,1,.77-.17,1.71,1.71,0,0,1,1.47.76,2.39,2.39,0,0,1,.32.79l.22.8.9,3.31-.25-.13,1.55-.6,3.48-1.34,1.66-.64a1.65,1.65,0,0,1,1.75.46,1.61,1.61,0,0,1,.39.82c0,.26.06.53.1.79.06.52.12,1,.18,1.52.11,1,.22,1.88.32,2.72l.44,3.94c0,.43.07.78.1,1.07A1.56,1.56,0,0,1,366.55,303.86Z" style="fill: rgb(250, 250, 250); transform-origin: 355.304px 296.525px;" id="elpxs0ojfaiyl" class="animable"></path><path d="M359.42,288.19s.2.08.56.16a2.32,2.32,0,0,0,1.48-.12,2.21,2.21,0,0,0,.29-3.93,2.22,2.22,0,0,0-2.5.17,2.27,2.27,0,0,0-.83,1.94,2.4,2.4,0,0,0,.6,1.37c.24.27.42.38.4.41s-.21-.05-.51-.3a2.41,2.41,0,0,1-.75-1.45,2.45,2.45,0,0,1,.87-2.24,2.56,2.56,0,0,1,2.91-.23,2.54,2.54,0,0,1,1.18,2.67,2.48,2.48,0,0,1-1.56,1.84,2.38,2.38,0,0,1-1.63,0C359.57,288.36,359.41,288.21,359.42,288.19Z" style="fill: rgb(250, 250, 250); transform-origin: 360.652px 286.123px;" id="elrm0lw5ypgpn" class="animable"></path><g id="eleaa5czbde0a"><g style="opacity: 0.2; transform-origin: 346.325px 312.195px;" class="animable" id="elxooykqnvs5m"><g id="elvu2z44apegq"><path d="M323.65,303.2H369a0,0,0,0,1,0,0v12.26a5.73,5.73,0,0,1-5.73,5.73H329.38a5.73,5.73,0,0,1-5.73-5.73V303.2a0,0,0,0,1,0,0Z" class="animable" style="transform-origin: 346.325px 312.195px; transform: rotate(30.84deg);" id="elvkyqm5oh3ti"></path></g></g></g><path d="M376.29,271.5,369,283.64a4.22,4.22,0,0,0,1.46,5.78l11.67,7Z" style="fill: #14C888; transform-origin: 375.268px 283.96px;" id="elwbfgw7srlhr" class="animable"></path><g id="elx54vf9vvx2"><g style="opacity: 0.2; transform-origin: 375.047px 292.227px;" class="animable" id="elnfrah759ti"><path d="M368.57,284.8a4.68,4.68,0,0,0,.86,5.81,3.31,3.31,0,0,0,.33.32c1.36,1.18,10.33,8.95,10.46,8.72l1.95-3.26-11.67-7S367.65,287.59,368.57,284.8Z" id="elb0jcha8dpo" class="animable" style="transform-origin: 375.047px 292.227px;"></path></g></g><path d="M343.17,309.55l1.28.77L343,312.77a4.78,4.78,0,0,1-2.9-.69,3.65,3.65,0,1,1,3.76-6.25,3.76,3.76,0,0,1,1.91,2.56l-1.39.3a2.44,2.44,0,0,0-1.16-1.62,2.26,2.26,0,1,0-2.33,3.87,2.63,2.63,0,0,0,1.24.39Z" style="fill: rgb(250, 250, 250); transform-origin: 341.986px 309.007px;" id="elujwqv7318y" class="animable"></path><path d="M347.5,308.16l1.4.83-3.62,6.06-1.4-.84Z" style="fill: rgb(250, 250, 250); transform-origin: 346.39px 311.605px;" id="ellux22jahx2k" class="animable"></path><path d="M351.06,311.81l-.95,1.6,2.8,1.68-.67,1.12-2.8-1.67-1.32,2.2-1.4-.83,3.61-6.06,4.58,2.73-.67,1.13Z" style="fill: rgb(250, 250, 250); transform-origin: 350.815px 313.295px;" id="elnchgqm3act" class="animable"></path><g id="el2ybmnaii7zq"><g style="opacity: 0.3; transform-origin: 375.268px 283.96px;" class="animable" id="el4cemoy92yal"><path d="M376.29,271.5,369,283.64a4.22,4.22,0,0,0,1.46,5.78l11.67,7Z" style="fill: rgb(255, 255, 255); transform-origin: 375.268px 283.96px;" id="elcbhdtvv3a6n" class="animable"></path></g></g><path d="M289.06,362.85,248,371.22a5.24,5.24,0,0,1-6.19-4.09l-11.58-56.89a5.24,5.24,0,0,1,4.09-6.19l26.07-5.31,24.41,16.69,8.39,41.23A5.24,5.24,0,0,1,289.06,362.85Z" style="fill: rgb(69, 90, 100); transform-origin: 261.709px 335.034px;" id="elomq04safq6a" class="animable"></path><path d="M260.35,298.74l3.26,16a4.86,4.86,0,0,0,5.75,3.81l15.4-3.13Z" style="fill: rgb(38, 50, 56); transform-origin: 272.555px 308.695px;" id="elik359b6lfb" class="animable"></path><path d="M260,314.8c0,.21-4.18,1.24-9.43,2.31s-9.54,1.77-9.59,1.56,4.18-1.23,9.43-2.3S260,314.6,260,314.8Z" style="fill: rgb(250, 250, 250); transform-origin: 250.49px 316.737px;" id="elkfrv8zz3v6" class="animable"></path><path d="M274.15,321.35c0,.21-6.93,1.8-15.57,3.56s-15.68,3-15.72,2.82,6.93-1.8,15.57-3.56S274.11,321.15,274.15,321.35Z" style="fill: rgb(250, 250, 250); transform-origin: 258.505px 324.538px;" id="eltsvz803a84a" class="animable"></path><path d="M278.51,328.34c0,.2-7.56,1.93-17,3.84s-17.09,3.31-17.13,3.1,7.56-1.92,17-3.84S278.47,328.13,278.51,328.34Z" style="fill: rgb(250, 250, 250); transform-origin: 261.445px 331.81px;" id="elhi9zjkb3om" class="animable"></path><path d="M280,335.47c0,.21-7.56,1.93-17,3.85s-17.09,3.3-17.13,3.1,7.56-1.93,17-3.85S279.92,335.26,280,335.47Z" style="fill: rgb(250, 250, 250); transform-origin: 262.935px 338.944px;" id="el7f0ftjfqkml" class="animable"></path><path d="M281.41,342.6c0,.21-7.56,1.93-17,3.85s-17.09,3.3-17.13,3.1,7.56-1.93,17-3.85S281.37,342.4,281.41,342.6Z" style="fill: rgb(250, 250, 250); transform-origin: 264.345px 346.075px;" id="elkp07d8mkgd" class="animable"></path><path d="M282.86,349.73c.05.21-7.56,1.93-17,3.85s-17.09,3.3-17.13,3.1,7.56-1.93,17-3.85S282.82,349.53,282.86,349.73Z" style="fill: rgb(250, 250, 250); transform-origin: 265.795px 353.205px;" id="elei1nx666gr" class="animable"></path><path d="M363.34,212.19l-36.62,2.54a4.58,4.58,0,0,1-4.9-4.26l-3.52-50.7a4.59,4.59,0,0,1,4.26-4.9l23.23-1.61,19.27,17.29,2.55,36.74A4.6,4.6,0,0,1,363.34,212.19Z" style="fill: rgb(69, 90, 100); transform-origin: 342.955px 184.001px;" id="elk3aplm0577" class="animable"></path><g id="el4hl56t3dl55"><g style="opacity: 0.2; transform-origin: 344.395px 204.385px;" class="animable" id="elzm39q0edo8"><g id="elt33mnguui7p"><path d="M321.45,195.28h45.9a0,0,0,0,1,0,0v11.31a6.9,6.9,0,0,1-6.9,6.9H328.34a6.9,6.9,0,0,1-6.9-6.9V195.28A0,0,0,0,1,321.45,195.28Z" class="animable" style="transform-origin: 344.395px 204.385px; transform: rotate(-3.97deg);" id="el5d81e71leh"></path></g></g></g><path d="M345.79,153.26l1,14.27a4.28,4.28,0,0,0,4.56,4l13.72-.95Z" style="fill: rgb(38, 50, 56); transform-origin: 355.43px 162.4px;" id="ell4ru3l5sfxf" class="animable"></path><path d="M338.64,180.59,333.28,183l5.64,1.62.14,2.06L331,184.22l-.14-2.15,7.65-3.53Z" style="fill: rgb(250, 250, 250); transform-origin: 334.96px 182.61px;" id="elewn49iydq65" class="animable"></path><path d="M344.12,174.07l2.3-.16-4.37,15.93-2.3.16Z" style="fill: rgb(250, 250, 250); transform-origin: 343.085px 181.955px;" id="ellz0kbpc0mr" class="animable"></path><path d="M355.06,180.39l.15,2.15-7.65,3.53-.15-2.06,5.36-2.38L347.13,180,347,178Z" style="fill: rgb(250, 250, 250); transform-origin: 351.105px 182.035px;" id="elg8jf5416oya" class="animable"></path><path d="M338.28,202.47l.42,6.16-1.42.09-.17-2.52-2.8.2.17,2.52-1.42.1-.43-6.16,1.43-.1.17,2.43L337,205l-.17-2.43Z" style="fill: rgb(250, 250, 250); transform-origin: 335.665px 205.745px;" id="elupnhszx0ib" class="animable"></path><path d="M341.09,203.44l-2,.14-.08-1.16,5.36-.37.08,1.16-2,.13.34,5-1.42.1Z" style="fill: rgb(250, 250, 250); transform-origin: 341.73px 205.245px;" id="elb27uv8w9kc7" class="animable"></path><path d="M351.2,207.76l-.27-3.69-1.6,3.17-.64,0-2-2.84.25,3.62-1.33.09-.43-6.16,1.18-.08,2.56,3.67,2-4,1.17-.08.44,6.16Z" style="fill: rgb(250, 250, 250); transform-origin: 348.855px 204.785px;" id="elnn3i4cc1lt" class="animable"></path><path d="M353.56,201.41l1.43-.1.34,5,3.09-.22.08,1.16-4.51.32Z" style="fill: rgb(250, 250, 250); transform-origin: 356.03px 204.44px;" id="elxsrisp3ec9" class="animable"></path><rect x="211.57" y="345.02" width="191.57" height="124.48" style="fill: #14C888; transform-origin: 307.355px 407.26px;" id="el05pgt91xnoeo" class="animable"></rect><g id="elbxhjx922te5"><g style="opacity: 0.3; transform-origin: 377.825px 407.26px;" class="animable" id="elw3yrr9ra9qo"><rect x="352.51" y="345.02" width="50.63" height="124.48" id="elh0qqaqkwqoh" class="animable" style="transform-origin: 377.825px 407.26px;"></rect></g></g><polygon points="352.51 345.02 381.47 379.1 429.32 379.1 403.14 345.02 352.51 345.02" style="fill: #14C888; transform-origin: 390.915px 362.06px;" id="el0cxjc7x05fuu" class="animable"></polygon><polygon points="211.57 345.02 172.22 379.1 321.08 379.1 352.51 345.02 211.57 345.02" style="fill: #14C888; transform-origin: 262.365px 362.06px;" id="ell76r5p9gskq" class="animable"></polygon><path d="M352.51,345s-.18.23-.55.65l-1.65,1.84L344,354.46c-5.5,6-13.33,14.52-22.74,24.79l-.07.07h-.1l-51.93.08-69.52,0-21.06-.06-5.73-.05-1.49,0-.51,0s.17,0,.51,0l1.49,0,5.73-.06,21.06-.1,69.52-.13h51.93l-.16.07c9.48-10.21,17.35-18.71,22.88-24.66l6.41-6.87c.74-.77,1.3-1.37,1.7-1.8Z" style="fill: rgb(38, 50, 56); transform-origin: 261.68px 362.2px;" id="elvach9r16s68" class="animable"></path><path d="M352.51,469.5c-.14,0-.26-27.86-.26-62.23s.12-62.25.26-62.25.26,27.87.26,62.25S352.66,469.5,352.51,469.5Z" style="fill: rgb(38, 50, 56); transform-origin: 352.51px 407.26px;" id="elhf0w6hhg2mu" class="animable"></path><g id="el4qel6te5q87"><g style="opacity: 0.3; transform-origin: 277.22px 460.32px;" class="animable" id="elz3adtxjrcqc"><rect x="266.93" y="451.13" width="20.58" height="18.38" style="fill: rgb(255, 255, 255); transform-origin: 277.22px 460.32px;" id="el6hcjs71afds" class="animable"></rect></g></g><g id="elhuvflecwakn"><rect x="245.22" y="401.38" width="70.33" height="30.96" style="fill: rgb(255, 255, 255); transform-origin: 280.385px 416.86px; transform: rotate(-12.53deg);" class="animable" id="eluqfjnphfy58"></rect></g><path d="M316.35,423.68s-.05-.18-.13-.51-.2-.84-.35-1.47c-.3-1.31-.74-3.2-1.3-5.63-1.1-4.88-2.7-11.91-4.67-20.58l.22.14-65.81,14.7c-.18.28.23-.38.19-.3h0v.05l0,.05,0,.12,0,.23.11.47.2.92.41,1.85c.27,1.22.55,2.44.81,3.65q.81,3.64,1.6,7.19c1,4.72,2.06,9.3,3,13.69l-.29-.19,47.2-10.36,13.71-3,3.68-.78,1-.2.33-.06-.3.08-.92.22-3.62.84-13.62,3.1-47.32,10.63-.24.05-.05-.24-3.05-13.69c-.53-2.36-1.06-4.76-1.6-7.18-.27-1.22-.54-2.44-.82-3.66L244.4,412l-.2-.92-.1-.46-.06-.24,0-.11v-.09h0c0,.06.38-.59.21-.32L310,395.27l.18,0,0,.18,4.51,20.73c.51,2.42.92,4.3,1.19,5.61.13.62.23,1.1.31,1.45S316.35,423.68,316.35,423.68Z" style="fill: rgb(38, 50, 56); transform-origin: 280.195px 416.925px;" id="elpmnd1ixdidm" class="animable"></path><path d="M277.81,421.69l.45,2.07-9.6,2.13-.36-1.65,4.41-8.59-5.9,1.31-.46-2.07,9.24-2.06.37,1.65-4.4,8.6Z" style="fill: rgb(38, 50, 56); transform-origin: 272.305px 419.36px;" id="elw7b00vp1f2" class="animable"></path><path d="M277.45,412.42l2.55-.57,2.44,11-2.55.57Z" style="fill: rgb(38, 50, 56); transform-origin: 279.945px 417.635px;" id="elh4jhnefg7zs" class="animable"></path><path d="M293,413.14c.55,2.45-.95,4.38-3.88,5l-2.21.49.67,3-2.54.56-2.44-11,4.75-1C290.28,409.57,292.46,410.68,293,413.14Zm-2.57.58c-.27-1.21-1.21-1.74-2.76-1.4l-2.07.46.85,3.81,2.07-.46C290.07,415.79,290.7,414.91,290.43,413.72Z" style="fill: rgb(38, 50, 56); transform-origin: 287.856px 416.106px;" id="el50gax6voei8" class="animable"></path><g id="elo1fn0neqap"><g style="opacity: 0.3; transform-origin: 281.74px 367.21px;" class="animable" id="elo3xhzgzj17"><polygon points="211.57 379.22 211.57 388.74 323.29 388.17 351.91 345.68 321.08 379.1 211.57 379.22" id="el1hh0gr5mdbw" class="animable" style="transform-origin: 281.74px 367.21px;"></polygon></g></g><path d="M209.75,279.86l-36.51-9a3.31,3.31,0,0,1-2.42-4L183,217.63a3.31,3.31,0,0,1,4-2.42l25.53,6.31,10.78,17.33-9.55,38.59A3.32,3.32,0,0,1,209.75,279.86Z" style="fill: #14C888; transform-origin: 197.018px 247.535px;" id="el0vdylz2ip8w" class="animable"></path><path d="M212.55,221.4l-2.42,9.78a4.51,4.51,0,0,0,3.3,5.46l9.87,2.21Z" style="fill: #14C888; transform-origin: 216.649px 230.125px;" id="elo9ldvrk77ts" class="animable"></path><path d="M206.67,268.78s0-.17.09-.46.18-.76.3-1.31c.28-1.17.67-2.82,1.16-4.9,1-4.22,2.45-10.18,4.18-17.34l.15.25-24.92-6.13.29-.17h0v0l0,0,0,.1-.05.21-.1.41-.2.81c-.14.54-.27,1.09-.41,1.62-.26,1.08-.53,2.15-.79,3.2-.52,2.11-1,4.18-1.53,6.19-1,4-1.95,7.82-2.83,11.31l-.15-.25,18,4.55,5.08,1.31,1.35.36.47.14-.44-.08-1.32-.31-5.06-1.19-18.14-4.38-.2,0,.05-.21c.86-3.5,1.79-7.3,2.78-11.32.49-2,1-4.08,1.52-6.19.26-1.06.53-2.12.79-3.2.13-.54.27-1.08.4-1.62l.2-.82.11-.41,0-.2,0-.11v-.09h0c-.26.15.35-.22.29-.18l24.9,6.19.2,0,0,.2c-1.83,7.19-3.35,13.18-4.42,17.41-.53,2.06-.95,3.68-1.25,4.83l-.33,1.26A2.16,2.16,0,0,1,206.67,268.78Z" style="fill: rgb(255, 255, 255); transform-origin: 197.22px 253.573px;" id="elbp576z3g7va" class="animable"></path><path d="M193.91,265.93c-.13,0,1.1-5.42,2.73-12s3.07-11.95,3.2-11.92-1.1,5.42-2.74,12S194,266,193.91,265.93Z" style="fill: rgb(255, 255, 255); transform-origin: 196.875px 253.97px;" id="ellj5njruk7wg" class="animable"></path><path d="M208,262.89c0,.12-5.66-1.16-12.56-2.86S183,256.83,183,256.7s5.65,1.15,12.56,2.86S208.06,262.76,208,262.89Z" style="fill: rgb(255, 255, 255); transform-origin: 195.5px 259.794px;" id="elqhqfzrbokdc" class="animable"></path><path d="M209.82,256.85c0,.12-5.65-1.16-12.55-2.86s-12.48-3.2-12.45-3.33,5.65,1.16,12.56,2.86S209.86,256.72,209.82,256.85Z" style="fill: rgb(255, 255, 255); transform-origin: 197.32px 253.754px;" id="el0qp18vmo75y" class="animable"></path><path d="M211.14,250.69c0,.13-5.61-1.14-12.46-2.83s-12.38-3.18-12.35-3.3,5.61,1.14,12.47,2.83S211.18,250.56,211.14,250.69Z" style="fill: rgb(255, 255, 255); transform-origin: 198.735px 247.626px;" id="elvtymctnziva" class="animable"></path><g id="el55l6fkly3nd"><g style="opacity: 0.4; transform-origin: 216.649px 230.125px;" class="animable" id="elum4049vlw3"><path d="M212.55,221.4l-2.42,9.78a4.51,4.51,0,0,0,3.3,5.46l9.87,2.21Z" style="fill: rgb(255, 255, 255); transform-origin: 216.649px 230.125px;" id="eleyee4neh4gp" class="animable"></path></g></g><path d="M316.18,281.23l-43.65,10.31a5.61,5.61,0,0,1-6.76-4.17L251.5,227a5.6,5.6,0,0,1,4.17-6.75l27.68-6.55,26.65,17,10.35,43.79A5.62,5.62,0,0,1,316.18,281.23Z" style="fill: #14C888; transform-origin: 285.922px 252.696px;" id="el1ifl0p3s7iki" class="animable"></path><path d="M298.34,254.77s.37-.1,1-.4a5.26,5.26,0,0,0,2.19-2,5.16,5.16,0,0,0,.67-2.07,4.72,4.72,0,0,0,0-1.24c-.07-.42-.18-.87-.29-1.33-.45-1.85-1-4-1.53-6.28-.28-1.17-.57-2.39-.88-3.66-.15-.63-.3-1.28-.46-1.94a9.31,9.31,0,0,0-.61-1.94,5.72,5.72,0,0,0-5.16-3.22A9.11,9.11,0,0,0,291,231l-20,4.78a5.52,5.52,0,0,0-3.48,3.58,5.35,5.35,0,0,0-.18,2.51c.15.83.39,1.69.57,2.53.79,3.35,1.55,6.59,2.28,9.67.19.76.33,1.56.56,2.25a5.08,5.08,0,0,0,1.14,1.86,5.23,5.23,0,0,0,3.76,1.6,8.6,8.6,0,0,0,2-.32l1.94-.46,3.67-.85,11-2.53,3-.67.78-.16a1.41,1.41,0,0,1,.27,0s-.08,0-.26.09l-.77.2-3,.76-11,2.68-3.65.88-1.95.46a8.61,8.61,0,0,1-2.08.35,5.64,5.64,0,0,1-5.31-3.7c-.25-.78-.38-1.52-.58-2.3-.73-3.08-1.5-6.31-2.3-9.67-.19-.84-.42-1.66-.58-2.55a5.75,5.75,0,0,1,.19-2.73,6,6,0,0,1,3.78-3.89c7.14-1.75,13.9-3.3,20.07-4.76a9.77,9.77,0,0,1,2.36-.37,6,6,0,0,1,2.3.46,6.09,6.09,0,0,1,3.21,3,9.39,9.39,0,0,1,.63,2q.22,1,.45,1.95c.3,1.27.58,2.49.85,3.66.54,2.33,1,4.44,1.45,6.3.11.46.22.91.29,1.36a5.14,5.14,0,0,1,0,1.3,5.37,5.37,0,0,1-.73,2.13,5.26,5.26,0,0,1-2.31,2A3.75,3.75,0,0,1,298.34,254.77Z" style="fill: rgb(250, 250, 250); transform-origin: 284.599px 245.225px;" id="eloxt5pus32j" class="animable"></path><path d="M302.57,250.75s-.15-.07-.39-.25l-1.07-.8c-1-.75-2.29-1.76-3.88-3l-2.66-2.09-1.48-1.17-.77-.6a1.64,1.64,0,0,0-.83-.3,1.58,1.58,0,0,0-1.5.87l-.91,2c-.62,1.36-1.27,2.76-1.93,4.19-.29.65-.58,1.28-.86,1.88l-.11.24-.22-.14c-1.26-.75-2.48-1.47-3.65-2.18l-.87-.52a2.49,2.49,0,0,0-.83-.39,1.73,1.73,0,0,0-1.57.47,4.11,4.11,0,0,0-.49.72l-.46.77c-.3.51-.59,1-.88,1.47-.57.94-1.1,1.82-1.58,2.63-.95,1.55-1.73,2.82-2.3,3.77l-.65,1c-.15.23-.23.35-.25.34a1.63,1.63,0,0,1,.18-.38l.56-1.05c.55-1,1.29-2.26,2.18-3.84l1.54-2.66c.27-.48.56-1,.86-1.48q.21-.39.45-.78a4.07,4.07,0,0,1,.54-.81,2.15,2.15,0,0,1,2-.6,2.86,2.86,0,0,1,1,.44l.87.51,3.66,2.17-.34.1.86-1.87c.67-1.44,1.31-2.84,1.94-4.19l.92-2a2,2,0,0,1,1.94-1.1,2,2,0,0,1,1.05.39l.78.62,1.46,1.19,2.63,2.13,3.78,3.12,1,.87A2.28,2.28,0,0,1,302.57,250.75Z" style="fill: rgb(250, 250, 250); transform-origin: 287.5px 250.887px;" id="elzqjo1acob7q" class="animable"></path><path d="M282.76,243s.24-.11.63-.34a2.94,2.94,0,0,0,1.21-1.39,2.74,2.74,0,0,0-.26-2.59,2.71,2.71,0,0,0-4.94,1.16,2.78,2.78,0,0,0,.94,2.44,2.9,2.9,0,0,0,1.7.7,6.16,6.16,0,0,1,.72,0,1.38,1.38,0,0,1-.72.16,2.88,2.88,0,0,1-1.91-.62,3.07,3.07,0,0,1-1.16-2.75,3.12,3.12,0,0,1,5.74-1.35,3.06,3.06,0,0,1,.19,3,2.92,2.92,0,0,1-1.43,1.42A1.36,1.36,0,0,1,282.76,243Z" style="fill: rgb(250, 250, 250); transform-origin: 282.078px 240.056px;" id="elhdqdhq8k8r" class="animable"></path><g id="el3ynj8ocb7h"><g style="opacity: 0.2; transform-origin: 291.8px 275.56px;" class="animable" id="el225wayofm0t"><g id="el0lfzf8adbiv"><path d="M263.76,264.44h56.08a0,0,0,0,1,0,0V281.3a5.38,5.38,0,0,1-5.38,5.38H269.14a5.38,5.38,0,0,1-5.38-5.38V264.44a0,0,0,0,1,0,0Z" class="animable" style="transform-origin: 291.8px 275.56px; transform: rotate(-13.3deg);" id="elgwto9tgifpw"></path></g></g></g><path d="M283.35,213.65l4,17a5.23,5.23,0,0,0,6.28,3.88L310,230.68Z" style="fill: #14C888; transform-origin: 296.675px 224.159px;" id="elyw6lrvd42f" class="animable"></path><g id="eldzd8pm98jho"><g style="opacity: 0.2; transform-origin: 299.565px 233.609px;" class="animable" id="eleqayzgojo9p"><path d="M288,232.1a5.8,5.8,0,0,0,5.77,4.42,5.42,5.42,0,0,0,.57,0c2.22-.12,16.87-.94,16.79-1.26s-1.08-4.57-1.08-4.57l-16.35,3.86S289.54,235.37,288,232.1Z" id="el6zuh9je51d6" class="animable" style="transform-origin: 299.565px 233.609px;"></path></g></g><path d="M279.41,281.2l.73-1.51a1.89,1.89,0,0,0,1.73.52c.76-.18,1-.73.82-1.63l-.95-3.86-2.86.7-.37-1.51,4.72-1.17,1.31,5.28c.49,2-.27,3.24-2.19,3.72A3.37,3.37,0,0,1,279.41,281.2Z" style="fill: rgb(250, 250, 250); transform-origin: 281.597px 277.305px;" id="elkdmaaxecwen" class="animable"></path><path d="M292.87,273.49c.45,1.82-.63,3.28-2.8,3.81l-1.64.41L289,280l-1.88.46-2-8.13,3.51-.87C290.79,270.88,292.42,271.67,292.87,273.49ZM291,274c-.22-.89-.93-1.27-2.08-1l-1.53.38.69,2.82,1.54-.37C290.73,275.51,291.19,274.85,291,274Z" style="fill: rgb(250, 250, 250); transform-origin: 289.045px 275.866px;" id="el58su2ucvhxd" class="animable"></path><path d="M300.07,272.76l1.72-.42.81,3.3a5.76,5.76,0,0,1-3,1.84,4.33,4.33,0,1,1-2-8.41,4.45,4.45,0,0,1,3.75.56l-.93,1.41a2.86,2.86,0,0,0-2.33-.4,2.68,2.68,0,1,0,1.26,5.21,2.92,2.92,0,0,0,1.37-.71Z" style="fill: rgb(250, 250, 250); transform-origin: 298.309px 273.273px;" id="elnyl0hkbz58e" class="animable"></path><g id="elp1wb6d9r8ks"><g style="opacity: 0.4; transform-origin: 296.675px 224.159px;" class="animable" id="el3dnyg5bbgw3"><path d="M283.35,213.65l4,17a5.23,5.23,0,0,0,6.28,3.88L310,230.68Z" style="fill: rgb(255, 255, 255); transform-origin: 296.675px 224.159px;" id="el30vyz4cykzh" class="animable"></path></g></g></g><defs>     <filter id="active" height="200%">         <feMorphology in="SourceAlpha" result="DILATED" operator="dilate" radius="2"></feMorphology>                <feFlood flood-color="#32DFEC" flood-opacity="1" result="PINK"></feFlood>        <feComposite in="PINK" in2="DILATED" operator="in" result="OUTLINE"></feComposite>        <feMerge>            <feMergeNode in="OUTLINE"></feMergeNode>            <feMergeNode in="SourceGraphic"></feMergeNode>        </feMerge>    </filter>    <filter id="hover" height="200%">        <feMorphology in="SourceAlpha" result="DILATED" operator="dilate" radius="2"></feMorphology>                <feFlood flood-color="#ff0000" flood-opacity="0.5" result="PINK"></feFlood>        <feComposite in="PINK" in2="DILATED" operator="in" result="OUTLINE"></feComposite>        <feMerge>            <feMergeNode in="OUTLINE"></feMergeNode>            <feMergeNode in="SourceGraphic"></feMergeNode>        </feMerge>            <feColorMatrix type="matrix" values="0   0   0   0   0                0   1   0   0   0                0   0   0   0   0                0   0   0   1   0 "></feColorMatrix>    </filter></defs></svg>