<svg id="Graphic_Elements" data-name="Graphic Elements" xmlns="http://www.w3.org/2000/svg" viewBox="0 0 1200 1200"><defs><style>.cls-1{fill:#21b04b;}</style></defs><title>job683</title><path id="path4136" class="cls-1" d="M487.58,831.49c-24.31-14.1,20.22-31.85,11.65-4.63C497,829.86,491.41,834.58,487.58,831.49Zm183.29-20.78c-13.15-2.34-17.91-20.07-30.09-22-23-4.13-43.32,4.5-61,14.07-10.51-9.26-14.59-41.09-37.25-23.18-11.86,5.1-26.09,37.77-36.43,17.93,12.26-16.12,13.62-38.7-2.51-53.86-9.07-25.53-23.49-3-38.11-.47-19.85-7,2.25-18,4.46-28.46-19.66-4.47-49.63-12.53-40.57-40.72-1.26-17.36-23.25-4.54-33.79-10.24-16.4-2.88-10.5-27.34,7.06-18.75,17.51,3.4,57.61-4.46,32.23-26.62-15.76-15.19-36.4-26.72-59-19.46-11.31,7.56-45.18,3.8-35-13.82,19.67-10.71,41.23,3.86,62.55-.41,22.66,2.25,56.8,2.92,46.57-30.26-9.27-9.78-32.92-30.83-7.39-36.3,15.55-.22,30.87,10.43,44.6,1.8,13.21-12.44,16.77-39.42-.39-50.47C476,461,448.41,452.64,467,435.59c19.38,1.05,24.2,27.66,41.16,36.15,18.52,13.62,51,7.18,61.81-12.78,2-16.75-11.64-42.93,12.5-47.44,23.31,6.36-1.66,45.65,28.9,45.89,25.57,7.86,39.62-14,60.09-22,30.29,9.29-29.52,37,8.87,40.33,23.18,5.46,39-17.53,48.07-35.42,3.46-8.21,5.5-27.61,17.85-22.51,13.24,18.08,1.87,39.53-11.36,52.26-10.17,16.27,9.46,29.61,13.16,44.14,1.34,15.68,4,63.23,25.51,34.08,11.21-16.93,39.91,7.29,12.92,13.29-21.85,2.39-8.74,30.91,8.33,31.56,15.16,9,41.91-1.78,49.85,17.12-3.06,22.09-29.23,4.29-44.76,8.75-26.49.13-17.43,26.88-7.77,42.51,9.76,19.9,31.2,31.76,48.61,44.94,18.16,15.7-12.66,32.16-20.77,11.88-12.49-15.21-28.19-37.36-51-25.59-20.34,12.1-3.82,46.52-27.17,56-13.78,11.17,14.82,29.5,21.32,39.46,20,7.41,4,34.1-8.11,13.76-12.63-14.46-24-30.14-42.76-37.33C688.37,758.8,681,788.33,684,804.93A12.26,12.26,0,0,1,670.87,810.71ZM411.72,782.24c-14-18.7,22.26-31.47,36.51-33.31C440,762.11,431.41,787.41,411.72,782.24Zm395.16-238c3.09-15.41,26.51-17,35.12-30.11,15.45-13.89,31,21.09,5.36,18.74-12.79,2.58-28,12.61-40.48,11.37ZM740.42,398.19c-12-10.85,4.41-47.68,9.84-21.44C752.15,382.09,743.26,413,740.42,398.19Z"/><path id="path4136-2" data-name="path4136" class="cls-1" d="M363.09,1087.82c-51.22-29.71,42.62-67.13,24.56-9.77C382.9,1084.38,371.17,1094.32,363.09,1087.82ZM749.33,1044c-27.7-4.94-37.73-42.28-63.4-46.34-48.42-8.71-91.29,9.49-128.47,29.66-22.16-19.52-30.75-86.59-78.5-48.85-25,10.75-55,79.58-76.77,37.78,25.84-34,28.7-81.54-5.28-113.49-19.13-53.79-49.5-6.25-80.31-1-41.84-14.75,4.74-37.91,9.38-60C284.56,832.39,221.41,815.4,240.5,756c-2.66-36.59-49-9.59-71.21-21.58-34.55-6.07-22.12-57.63,14.87-39.51,36.92,7.16,121.4-9.4,67.94-56.1-33.22-32-76.73-56.31-124.35-41-23.82,15.94-95.2,8-73.8-29.12,41.45-22.57,86.88,8.12,131.8-.87,47.75,4.75,119.69,6.16,98.13-63.77-19.53-20.61-69.37-64.95-15.57-76.49,32.78-.45,65.05,22,94,3.8,27.84-26.21,35.33-83.08-.81-106.37-22.78-17.82-80.94-35.51-41.83-71.44,40.85,2.21,51,58.27,86.75,76.18,39,28.68,107.39,15.12,130.24-27,4.15-35.29-24.53-90.45,26.35-99.95,49.12,13.38-3.51,96.18,60.91,96.7,53.86,16.55,83.48-29.53,126.61-46.4,63.84,19.56-62.2,78,18.69,85,48.84,11.52,82.23-36.92,101.3-74.63,7.3-17.31,11.59-58.18,37.61-47.45,27.91,38.11,3.94,83.32-23.93,110.15-21.42,34.27,19.94,62.38,27.74,93,2.82,33.06,8.32,133.26,53.74,71.83,23.62-35.68,84.1,15.37,27.24,28-46,5-18.42,65.12,17.54,66.49,31.94,19,88.32-3.74,105,36.07-6.43,46.55-61.58,9-94.3,18.45-55.84.26-36.74,56.64-16.39,89.58,20.58,41.93,65.76,66.93,102.43,94.7,38.27,33.08-26.67,67.77-43.75,25-26.32-32.05-59.4-78.72-107.56-53.92-42.87,25.51-8,98-57.26,118-29,23.55,31.23,62.16,44.93,83.17,42.07,15.61,8.41,71.84-17.1,29-26.6-30.47-50.5-63.5-90.09-78.66-50.18-12.26-65.76,50-59.35,84.94C771.76,1041.59,760,1046.19,749.33,1044ZM203.24,984c-29.48-39.4,46.92-66.32,76.94-70.2C262.92,941.6,244.73,994.93,203.24,984ZM1036,482.53c6.5-32.48,55.86-35.79,74-63.45,32.55-29.28,65.24,44.43,11.29,39.48-27,5.43-59,26.58-85.3,24ZM895.91,174.73c-25.28-22.87,9.29-100.48,20.72-45.19C920.63,140.8,901.89,206,895.91,174.73Z"/></svg>